<svg width="20" height="21" viewBox="0 0 20 21" fill="none" xmlns="http://www.w3.org/2000/svg">
<path d="M13.5189 11.7229L13.5189 11.7229L17.374 13.4505C17.3742 13.4506 17.3744 13.4507 17.3746 13.4508C17.6295 13.5622 17.8418 13.7528 17.9797 13.9943C18.1179 14.2361 18.1742 14.516 18.1405 14.7924L18.1403 14.7938C17.9951 15.8966 17.4534 16.9089 16.6164 17.6415C15.7794 18.3742 14.7043 18.777 13.5919 18.7749M13.5189 11.7229L6.90956 10.4761L7.01236 10.4256M13.5189 11.7229L13.5166 11.7219C13.319 11.6372 13.1033 11.6032 12.8891 11.6228C12.6754 11.6425 12.47 11.715 12.2913 11.8339M13.5189 11.7229L7.04482 10.4112M13.5919 18.7749L13.5922 18.6252V18.7749C13.5921 18.7749 13.592 18.7749 13.5919 18.7749ZM13.5919 18.7749C7.11719 18.7748 1.85001 13.5075 1.85001 7.03269M1.85001 7.03269H2.00001L1.85001 7.033C1.85001 7.0329 1.85001 7.03279 1.85001 7.03269ZM1.85001 7.03269C1.84777 5.92038 2.25059 4.84531 2.9832 4.00833C3.71587 3.17127 4.72827 2.62964 5.8312 2.48464L5.83261 2.48445L5.83261 2.48446C6.11029 2.45063 6.39145 2.50778 6.63389 2.64731C6.87602 2.78667 7.06649 3.0007 7.1768 3.25735M7.1768 3.25735L7.17637 3.2564L7.03936 3.31746L7.17722 3.25835C7.17708 3.25802 7.17694 3.25769 7.1768 3.25735ZM7.1768 3.25735L8.89235 7.10632L8.89282 7.10739L8.89282 7.1074C8.97869 7.30419 9.0142 7.51927 8.99615 7.73322C8.97811 7.94691 8.90721 8.15275 8.78983 8.3322M8.78983 8.3322C8.79 8.33194 8.79016 8.33168 8.79033 8.33142L8.66391 8.25069L8.78939 8.33288C8.78953 8.33265 8.78968 8.33243 8.78983 8.3322ZM8.78983 8.3322C8.77632 8.35329 8.76161 8.37357 8.74577 8.39296L8.74433 8.39472L8.74432 8.39471L7.04482 10.4112M7.04482 10.4112C7.04461 10.4108 7.0444 10.4103 7.04419 10.4099L7.01236 10.4256M7.04482 10.4112C7.65736 11.6569 8.97228 12.9644 10.236 13.5758L12.2292 11.8805C12.2294 11.8803 12.2297 11.8801 12.2299 11.8799C12.2493 11.8632 12.2698 11.8478 12.2913 11.8339M7.01236 10.4256L6.99093 10.4075L6.90956 10.3389L7.04428 10.4049C7.04405 10.4054 7.04389 10.4058 7.04379 10.4063C7.04371 10.4067 7.04367 10.4071 7.04367 10.4075C7.04367 10.4078 7.0437 10.4082 7.04376 10.4085C7.04385 10.4091 7.04403 10.4096 7.04428 10.4101L7.01249 10.4257L7.01236 10.4256ZM12.2913 11.8339C12.2917 11.8336 12.292 11.8334 12.2924 11.8332L12.3734 11.9594L12.2902 11.8346C12.2906 11.8343 12.2909 11.8341 12.2913 11.8339ZM13.5926 17.4953H13.5922C7.82345 17.4953 3.12963 12.8015 3.12964 7.03269L3.12963 7.0322C3.12702 6.23101 3.4162 5.45627 3.94314 4.85274C4.46793 4.25168 5.19279 3.86137 5.98323 3.754H5.9898C5.99226 3.75416 5.99462 3.755 5.99663 3.75643C5.99881 3.75799 6.00047 3.76016 6.00139 3.76267L6.00105 3.76279L6.00529 3.77226L7.7278 7.6181L7.72779 7.61811L7.72839 7.61941C7.72867 7.62002 7.7289 7.62064 7.72909 7.62128L6.02761 9.64113C6.01022 9.66102 5.99432 9.68217 5.98005 9.7044L6.10626 9.78543L5.98079 9.70324C5.8588 9.88947 5.78697 10.104 5.77225 10.3262C5.75752 10.5483 5.80041 10.7705 5.89675 10.9712L5.8972 10.9721C6.63622 12.4851 8.15479 13.9919 9.68359 14.7305L9.68453 14.7309C9.8864 14.8267 10.1097 14.8686 10.3325 14.8524C10.5554 14.8362 10.7703 14.7625 10.9562 14.6386L10.9562 14.6386L10.9577 14.6376C10.976 14.625 10.9955 14.6107 11.0147 14.5947L11.0147 14.5947L11.0159 14.5937L13.0099 12.8971L16.86 14.6221L16.86 14.6221L16.8626 14.6232C16.8651 14.6243 16.8673 14.6261 16.8687 14.6285C16.8699 14.6304 16.8705 14.6325 16.8706 14.6347C16.7645 15.427 16.3743 16.1539 15.7724 16.6801C15.169 17.2077 14.3941 17.4974 13.5926 17.4953Z" fill="#2193CA" stroke="#2193CA" stroke-width="0.3"/>
</svg>
