<svg width="34" height="25" viewBox="0 0 34 25" fill="none" xmlns="http://www.w3.org/2000/svg">
<g clip-path="url(#clip0_177_365)">
<path fill-rule="evenodd" clip-rule="evenodd" d="M12.3157 14.7233L16.9852 17.9483L21.4864 14.8117L31.5762 24.8667C31.3105 24.9533 31.0267 25 30.7314 25H3.23249C2.86949 25 2.52299 24.9283 2.20454 24.8L12.3157 14.7233ZM33.4819 6.46V22.2217C33.4819 22.6333 33.3928 23.0233 33.2344 23.375L23.3443 13.5183L33.4819 6.46ZM0.481935 6.54833L10.4512 13.435L0.656835 23.1983C0.540833 22.8861 0.481583 22.5552 0.481935 22.2217V6.54833ZM30.7314 0C32.2494 0 33.4819 1.24333 33.4819 2.77833V3.755L16.9786 15.2467L0.481935 3.85V2.77833C0.481935 1.245 1.71284 0 3.23249 0H30.7314Z" fill="white"/>
</g>
<defs>
<clipPath id="clip0_177_365">
<rect width="33" height="25" fill="white" transform="translate(0.481934)"/>
</clipPath>
</defs>
</svg>
