<svg width="45" height="25" viewBox="0 0 45 25" fill="none" xmlns="http://www.w3.org/2000/svg">
<path fill-rule="evenodd" clip-rule="evenodd" d="M39.6466 17.5245C39.6466 17.5245 43.204 21.0163 44.084 22.6321C44.1011 22.6554 44.1145 22.6812 44.1236 22.7086C44.4822 23.3055 44.5702 23.7734 44.3942 24.1189C44.0972 24.6895 43.0918 24.9759 42.7508 25H36.4632C36.0254 25 35.1146 24.8863 34.0058 24.1254C33.1588 23.5373 32.3162 22.5687 31.5 21.6219C30.2812 20.216 29.2274 18.996 28.1604 18.996C28.0256 18.9957 27.8917 19.0179 27.7644 19.0616C26.957 19.3152 25.9318 20.4587 25.9318 23.5045C25.9318 24.4578 25.175 25 24.6448 25H21.765C20.7838 25 15.6753 24.6589 11.1455 19.9121C5.59494 14.1005 0.609732 2.44228 0.561332 2.33951C0.251131 1.58518 0.902332 1.17413 1.60633 1.17413H7.95554C8.80694 1.17413 9.08414 1.68576 9.27774 2.14492C9.50214 2.67186 10.3337 4.7796 11.6977 7.14754C13.9065 11.0001 15.2639 12.5678 16.3485 12.5678C16.5523 12.5684 16.7526 12.5156 16.9293 12.4147C18.3461 11.6407 18.0821 6.61186 18.0161 5.57548C18.0161 5.37432 18.0139 3.32998 17.2879 2.3417C16.7687 1.63329 15.8843 1.35779 15.3497 1.25721C15.4927 1.05169 15.7963 0.736837 16.1857 0.550988C17.1559 0.0699665 18.9093 0 20.6496 0H21.6154C23.503 0.0262375 23.9914 0.146493 24.6778 0.319223C26.0594 0.647192 26.0858 1.53708 25.9648 4.56752C25.9296 5.43336 25.8922 6.40852 25.8922 7.55641C25.8922 7.80129 25.8812 8.0746 25.8812 8.35228C25.8394 9.90686 25.7844 11.6582 26.8888 12.3776C27.032 12.4662 27.1974 12.5132 27.3662 12.5131C27.749 12.5131 28.8952 12.5131 32.0038 7.21095C33.3678 4.86925 34.4238 2.10775 34.4964 1.90003C34.558 1.78415 34.7428 1.45837 34.9672 1.32718C35.1268 1.24277 35.3056 1.20061 35.4864 1.20474H42.9554C43.7694 1.20474 44.3216 1.32718 44.4294 1.63329C44.6098 2.12961 44.3942 3.64483 40.9842 8.22765C40.41 8.99073 39.9062 9.65104 39.464 10.2283C36.373 14.2601 36.373 14.4634 39.6466 17.5245Z" fill="white"/>
</svg>
