<svg width="16" height="12" viewBox="0 0 16 12" fill="none" xmlns="http://www.w3.org/2000/svg">
<path d="M1.16667 3.05176e-05H14.8333C15.4773 3.05176e-05 16 0.537631 16 1.20003V10.8C16 11.1183 15.8771 11.4235 15.6583 11.6486C15.4395 11.8736 15.1428 12 14.8333 12H1.16667C0.857247 12 0.560501 11.8736 0.341709 11.6486C0.122916 11.4235 0 11.1183 0 10.8L0 1.20003C0 0.537631 0.522667 3.05176e-05 1.16667 3.05176e-05ZM1 3.0254V10.8C1 10.8947 1.07467 10.9715 1.16667 10.9715H14.8333C14.8775 10.9715 14.9199 10.9534 14.9512 10.9212C14.9824 10.8891 15 10.8455 15 10.8V3.0254L8.65333 7.4366C8.25867 7.71089 7.74133 7.71089 7.34667 7.4366L1 3.0254ZM1 1.20003V1.78426L7.90667 6.58426C7.93423 6.60342 7.96673 6.61366 8 6.61366C8.03327 6.61366 8.06577 6.60342 8.09333 6.58426L15 1.78426V1.20003C15 1.15456 14.9824 1.11096 14.9512 1.07881C14.9199 1.04666 14.8775 1.0286 14.8333 1.0286H1.16667C1.12246 1.0286 1.08007 1.04666 1.04882 1.07881C1.01756 1.11096 1 1.15456 1 1.20003Z" fill="#747474"/>
</svg>
