<svg width="33" height="28" viewBox="0 0 33 28" fill="none" xmlns="http://www.w3.org/2000/svg">
<path d="M11.6674 1.16667C11.6674 0.857247 11.7903 0.560501 12.0091 0.341709C12.2279 0.122917 12.5246 0 12.8341 0H19.8341C20.1435 0 20.4402 0.122917 20.659 0.341709C20.8778 0.560501 21.0007 0.857247 21.0007 1.16667V4.66667H26.8341C27.1435 4.66667 27.4402 4.78958 27.659 5.00838C27.8778 5.22717 28.0007 5.52391 28.0007 5.83333V14.0513L30.7984 15.2647C30.9473 15.3295 31.081 15.4248 31.1909 15.5443C31.3008 15.6638 31.3846 15.8049 31.4369 15.9586C31.4892 16.1124 31.5088 16.2753 31.4945 16.4371C31.4801 16.5989 31.4322 16.7558 31.3537 16.898L28.6821 21.707C28.3204 21.0467 27.8654 20.3607 26.9437 20.0317L28.6891 16.891L17.7247 12.1403C17.2857 11.9503 16.8124 11.8522 16.3341 11.8522C15.8557 11.8522 15.3824 11.9503 14.9434 12.1403L3.97907 16.8933L5.7244 20.034C4.80507 20.363 4.34773 21.049 3.98607 21.7093L1.3144 16.9027C1.23427 16.7603 1.18494 16.6026 1.16962 16.4399C1.1543 16.2773 1.17332 16.1132 1.22546 15.9583C1.27759 15.8034 1.36167 15.6613 1.47226 15.541C1.58284 15.4207 1.71746 15.325 1.8674 15.26L4.6674 14.049V5.83333C4.6674 5.52391 4.79032 5.22717 5.00911 5.00838C5.2279 4.78958 5.52465 4.66667 5.83407 4.66667H11.6674V1.16667ZM7.00073 13.0387L14.0147 10.0007C14.7468 9.68344 15.5362 9.51976 16.3341 9.51976C17.1319 9.51976 17.9213 9.68344 18.6534 10.0007L25.6674 13.0387V7H7.00073V13.0387ZM18.6674 2.33333H14.0007V4.66667H18.6674V2.33333ZM6.07207 22.6287C6.04329 22.6659 6.0168 22.7049 5.99273 22.7453C5.9398 22.841 5.89304 22.94 5.85273 23.0417C5.81561 23.1348 5.77355 23.226 5.72673 23.3147C5.53167 23.6604 5.28983 23.9777 5.00807 24.2573C4.34073 24.9293 3.17407 25.6667 1.1674 25.6667C0.85798 25.6667 0.561234 25.7896 0.342441 26.0084C0.123649 26.2272 0.000732422 26.5239 0.000732422 26.8333C0.000732422 27.1428 0.123649 27.4395 0.342441 27.6583C0.561234 27.8771 0.85798 28 1.1674 28C3.82973 28 5.57973 26.9873 6.66007 25.9093C6.7604 25.8067 6.85607 25.7063 6.94473 25.606C7.00307 25.6783 7.0614 25.7553 7.1244 25.83C8.00407 26.8847 9.47407 28 11.6674 28C13.8607 28 15.3307 26.8847 16.2104 25.83L16.3341 25.676L16.4577 25.83C17.3374 26.8847 18.8074 28 21.0007 28C23.1941 28 24.6641 26.8847 25.5437 25.83C25.6067 25.7553 25.6651 25.6783 25.7234 25.6037C25.8121 25.704 25.9077 25.8067 26.0081 25.907C27.0884 26.9873 28.8384 28 31.5007 28C31.8102 28 32.1069 27.8771 32.3257 27.6583C32.5445 27.4395 32.6674 27.1428 32.6674 26.8333C32.6674 26.5239 32.5445 26.2272 32.3257 26.0084C32.1069 25.7896 31.8102 25.6667 31.5007 25.6667C29.4964 25.6667 28.3297 24.9293 27.6601 24.2573C27.2832 23.8865 26.982 23.4459 26.7734 22.96C26.694 22.7302 26.5448 22.5309 26.3468 22.3898C26.1488 22.2488 25.9117 22.173 25.6686 22.173C25.4254 22.173 25.1884 22.2488 24.9903 22.3898C24.7923 22.5309 24.6432 22.7302 24.5637 22.96C24.3668 23.4586 24.0928 23.9231 23.7517 24.3367C23.1707 25.032 22.3051 25.6667 20.9984 25.6667C19.6941 25.6667 18.8284 25.032 18.2497 24.3367C17.9114 23.9263 17.6391 23.4658 17.4424 22.9717C17.3939 22.82 17.3147 22.68 17.2097 22.5603C17.1047 22.4406 16.9762 22.3438 16.8321 22.2759C16.6881 22.2081 16.5316 22.1706 16.3725 22.1659C16.2133 22.1611 16.0549 22.1892 15.9071 22.2483C15.7466 22.3106 15.6019 22.4078 15.4837 22.5329C15.3654 22.658 15.2765 22.8079 15.2234 22.9717C15.0267 23.4658 14.7543 23.9263 14.4161 24.3367C13.8374 25.032 12.9741 25.6667 11.6674 25.6667C10.3607 25.6667 9.4974 25.032 8.91873 24.3367C8.66973 24.0354 8.45601 23.7066 8.28173 23.3567C8.2391 23.2705 8.20018 23.1825 8.16507 23.093C8.1184 22.9763 8.07173 22.855 8.00873 22.7477C7.86604 22.5022 7.63873 22.3172 7.3694 22.2273L7.35773 22.2227C7.12785 22.1479 6.88035 22.1468 6.64984 22.2196C6.41932 22.2924 6.21732 22.4354 6.07207 22.6287Z" fill="#2193CA"/>
</svg>
