<svg width="37" height="28" viewBox="0 0 37 28" fill="none" xmlns="http://www.w3.org/2000/svg">
<g clip-path="url(#clip0_177_2642)">
<path d="M26.5168 25.9L19.2856 2.1H17.7159L14.1306 13.9H19.5007C19.7925 13.9 20.0723 14.0159 20.2786 14.2222C20.4848 14.4285 20.6007 14.7083 20.6007 15C20.6007 15.2917 20.4848 15.5715 20.2786 15.7778C20.0723 15.9841 19.7925 16.1 19.5007 16.1H13.4629L12.7136 18.567H21.0017C21.2935 18.567 21.5733 18.6829 21.7796 18.8892C21.9858 19.0955 22.1017 19.3753 22.1017 19.667C22.1017 19.9587 21.9858 20.2385 21.7796 20.4448C21.5733 20.6511 21.2935 20.767 21.0017 20.767H12.5018M26.5168 25.9L12.1015 20.5834C12.2273 20.6385 12.3636 20.6671 12.5017 20.667V20.767H12.5018M26.5168 25.9H10.4856M26.5168 25.9H10.4856M12.5018 20.767C12.3538 20.7671 12.2077 20.7372 12.0722 20.6797L10.4856 25.9M12.5018 20.767L10.4856 25.9M17.2707 -0.0999998L17.2707 -0.0999998C16.9277 -0.099717 16.594 0.0107338 16.3186 0.215071C16.0432 0.419405 15.8407 0.706812 15.7411 1.03492C15.7411 1.03493 15.7411 1.03493 15.7411 1.03493L8.18461 25.9H5.50073C5.20899 25.9 4.92921 26.0159 4.72291 26.2222C4.51662 26.4285 4.40073 26.7083 4.40073 27C4.40073 27.2917 4.51662 27.5715 4.72291 27.7778C4.92921 27.9841 5.20899 28.1 5.50073 28.1H31.5007C31.7925 28.1 32.0723 27.9841 32.2786 27.7778C32.4848 27.5715 32.6007 27.2917 32.6007 27C32.6007 26.7083 32.4848 26.4285 32.2786 26.2222C32.0723 26.0159 31.7925 25.9 31.5007 25.9H28.8159L21.2614 1.03493C21.1616 0.706469 20.9589 0.418805 20.683 0.214435C20.4072 0.0100751 20.073 -0.100164 19.7297 -0.0999998C19.7297 -0.0999998 19.7297 -0.0999998 19.7297 -0.0999998L17.2707 -0.0999998Z" fill="#2193CA" stroke="#2193CA" stroke-width="0.2"/>
</g>
<defs>
<clipPath id="clip0_177_2642">
<rect width="37" height="28" fill="white" transform="translate(0.000732422)"/>
</clipPath>
</defs>
</svg>
