<svg width="37" height="28" viewBox="0 0 37 28" fill="none" xmlns="http://www.w3.org/2000/svg">
<g clip-path="url(#clip0_177_2659)">
<path d="M32.4663 4.48312L32.4661 4.48306L18.8189 -0.0979759C18.8189 -0.0979832 18.8188 -0.0979907 18.8188 -0.0979981C18.6125 -0.167341 18.3894 -0.167334 18.1831 -0.0979759L4.53585 4.48306L4.53579 4.48309C4.33606 4.55023 4.16255 4.67886 4.03968 4.85058C3.91682 5.02228 3.85078 5.22841 3.85073 5.43981V5.43984V16.8925C3.85073 17.1597 3.95615 17.4163 4.14412 17.6056C4.33213 17.7949 4.58735 17.9014 4.85369 17.9014C5.12003 17.9014 5.37525 17.7949 5.56326 17.6056C5.75123 17.4163 5.85665 17.1597 5.85665 16.8925V6.83952L10.9733 8.55794C10.327 9.56636 9.88661 10.695 9.67857 11.878C9.45917 13.1255 9.50307 14.4056 9.8074 15.6349C10.1117 16.8642 10.6697 18.0153 11.4451 19.0132C12.1519 19.923 13.025 20.6869 14.0163 21.2644C11.3782 22.2435 9.08668 24.0918 7.42879 26.6531L7.42487 26.6592L7.42155 26.6656C7.30643 26.8876 7.27753 27.1447 7.34038 27.387C7.40323 27.6292 7.55343 27.8395 7.76205 27.9767C7.9707 28.1139 8.22274 28.1681 8.46905 28.1285C8.71535 28.0889 8.93796 27.9584 9.09366 27.7629L9.0982 27.7572L9.10217 27.7511C11.2754 24.3998 14.6994 22.4825 18.501 22.4825C22.3026 22.4825 25.7266 24.3998 27.8998 27.7511L27.8994 27.7513L27.9071 27.7613C28.0618 27.961 28.2857 28.0951 28.5344 28.1365C28.7831 28.1779 29.0381 28.1235 29.2487 27.9844C29.4592 27.8453 29.6099 27.6318 29.671 27.3863C29.7321 27.1409 29.6994 26.8813 29.5792 26.659L29.5796 26.6588L29.5731 26.6487C27.915 24.0912 25.6259 22.2431 22.985 21.2602C23.976 20.6821 24.8487 19.9177 25.555 19.0075C26.3296 18.0092 26.8869 16.858 27.1905 15.6288C27.4941 14.3995 27.5374 13.1197 27.3175 11.8725C27.109 10.6899 26.6682 9.56172 26.0218 8.55379L32.466 6.39665L32.4663 6.39656C32.6659 6.32931 32.8393 6.20063 32.962 6.02892C33.0848 5.85723 33.1507 5.65116 33.1507 5.43984C33.1507 5.22852 33.0848 5.02244 32.962 4.85075C32.8393 4.67904 32.6659 4.55037 32.4663 4.48312ZM25.459 13.4565V13.4568C25.4595 14.5736 25.1949 15.6744 24.6874 16.6673C24.1799 17.6603 23.4442 18.5166 22.5416 19.1651C21.639 19.8135 20.5957 20.2353 19.4986 20.3954C18.4015 20.5554 17.2823 20.4492 16.2342 20.0855C15.1861 19.7217 14.2394 19.111 13.473 18.304C12.7066 17.4971 12.1427 16.5173 11.8284 15.4462C11.5141 14.3752 11.4585 13.244 11.6662 12.1469C11.8674 11.0847 12.3097 10.0843 12.9581 9.22375L18.1831 10.9776C18.3894 11.047 18.6126 11.047 18.8189 10.9776L24.044 9.2237C24.9628 10.4395 25.4606 11.9265 25.459 13.4565ZM18.501 8.95791L8.02586 5.43984L18.501 1.92177L28.9761 5.43984L18.501 8.95791Z" fill="#2193CA" stroke="#2193CA" stroke-width="0.3"/>
</g>
<defs>
<clipPath id="clip0_177_2659">
<rect width="37" height="28" fill="white" transform="translate(0.000732422)"/>
</clipPath>
</defs>
</svg>
