<svg width="37" height="28" viewBox="0 0 37 28" fill="none" xmlns="http://www.w3.org/2000/svg">
<path d="M36.65 15.0553L36.65 15.0133L36.6282 14.9773L30.6353 5.12495L30.5915 5.05295L30.5072 5.0529L24.374 5.04931L24.224 5.04922L24.2239 5.19922L24.2173 16.4768L24.2173 16.6268L24.3672 16.6269L31.4963 16.6313L31.6464 16.6313L31.6464 16.4813L31.6472 14.9851L31.6472 14.8351L31.4973 14.8351L26.0179 14.8322L26.0229 6.84699L29.5783 6.84905L34.8502 15.5151L34.8459 22.7323L32.7524 22.7314C32.3345 20.6664 30.503 19.1058 28.3107 19.1044H28.3106C26.1203 19.1044 24.2888 20.663 23.8687 22.7263L22.3515 22.7255L22.3615 5.19874L22.3616 5.04873L22.2116 5.04865L19.7626 5.04727L19.7654 0.0118118L19.7655 -0.138181L19.6155 -0.138273L0.514051 -0.15L0.364045 -0.150092L0.363959 -8.59597e-05L0.35 24.3587L0.349914 24.5087L0.499903 24.5088L4.24176 24.5112C4.5024 25.8497 5.25554 26.7676 6.11377 27.3444C6.99254 27.935 7.98658 28.1717 8.68659 28.1382C10.8762 28.1379 12.7069 26.5798 13.1268 24.5167L23.8675 24.5225C24.2852 26.5878 26.1167 28.1487 28.3087 28.15H28.3088H28.3095C30.4999 28.15 32.3314 26.5912 32.7514 24.5278L36.4948 24.5301L36.6448 24.5302L36.6449 24.3802L36.65 15.0553ZM2.15055 22.7142L2.16287 1.64767L17.9647 1.6563L17.9619 6.69183L17.9618 6.84183L18.1118 6.84191L20.5608 6.8433L20.5515 22.7243L13.1278 22.7205C12.71 20.6554 10.8788 19.0948 8.68524 19.0935H8.68515C6.49527 19.0935 4.66406 20.6518 4.24416 22.7152L2.15055 22.7142ZM8.68581 26.342H8.68361C7.51971 26.342 5.95229 25.4199 5.95229 23.6144C5.95229 22.1125 7.17856 20.8897 8.68714 20.8896C10.1941 20.891 11.4193 22.115 11.4186 23.6172C11.4179 25.1193 10.1922 26.342 8.68581 26.342ZM28.3094 26.3537H28.3084C26.8011 26.3523 25.576 25.1282 25.5767 23.6261C25.5773 22.1233 26.8041 20.9006 28.3115 20.9005C29.8189 20.9019 31.044 22.1261 31.0433 23.6282C31.0425 25.131 29.816 26.3537 28.3094 26.3537Z" fill="#2193CA" stroke="#2193CA" stroke-width="0.3"/>
</svg>
