<svg width="23" height="28" viewBox="0 0 23 28" fill="none" xmlns="http://www.w3.org/2000/svg">
<path d="M18.5007 0H4.50073C3.43987 0 2.42245 0.421427 1.6723 1.17157C0.92216 1.92172 0.500732 2.93913 0.500732 4V20C0.500732 21.0609 0.92216 22.0783 1.6723 22.8284C2.42245 23.5786 3.43987 24 4.50073 24H5.50073L3.70073 26.4C3.62194 26.5051 3.56461 26.6246 3.53202 26.7518C3.49943 26.879 3.49221 27.0114 3.51078 27.1414C3.52935 27.2714 3.57335 27.3965 3.64026 27.5095C3.70717 27.6225 3.79567 27.7212 3.90073 27.8C4.00579 27.8788 4.12534 27.9361 4.25255 27.9687C4.37976 28.0013 4.51215 28.0085 4.64215 27.9899C4.77215 27.9714 4.89723 27.9274 5.01023 27.8605C5.12322 27.7936 5.22194 27.7051 5.30073 27.6L8.00073 24H15.0007L17.7007 27.6C17.8599 27.8122 18.0968 27.9524 18.3593 27.9899C18.6219 28.0275 18.8886 27.9591 19.1007 27.8C19.3129 27.6409 19.4532 27.404 19.4907 27.1414C19.5282 26.8789 19.4599 26.6122 19.3007 26.4L17.5007 24H18.5007C19.5616 24 20.579 23.5786 21.3292 22.8284C22.0793 22.0783 22.5007 21.0609 22.5007 20V4C22.5007 2.93913 22.0793 1.92172 21.3292 1.17157C20.579 0.421427 19.5616 0 18.5007 0ZM2.50073 12V7H10.5007V12H2.50073ZM12.5007 7H20.5007V12H12.5007V7ZM4.50073 2H18.5007C19.0312 2 19.5399 2.21071 19.9149 2.58579C20.29 2.96086 20.5007 3.46957 20.5007 4V5H2.50073V4C2.50073 3.46957 2.71145 2.96086 3.08652 2.58579C3.46159 2.21071 3.9703 2 4.50073 2ZM18.5007 22H4.50073C3.9703 22 3.46159 21.7893 3.08652 21.4142C2.71145 21.0391 2.50073 20.5304 2.50073 20V14H20.5007V20C20.5007 20.5304 20.29 21.0391 19.9149 21.4142C19.5399 21.7893 19.0312 22 18.5007 22ZM7.50073 18.5C7.50073 18.7967 7.41276 19.0867 7.24794 19.3334C7.08311 19.58 6.84885 19.7723 6.57476 19.8858C6.30067 19.9993 5.99907 20.0291 5.7081 19.9712C5.41712 19.9133 5.14985 19.7704 4.94007 19.5607C4.73029 19.3509 4.58743 19.0836 4.52955 18.7926C4.47168 18.5017 4.50138 18.2001 4.61491 17.926C4.72844 17.6519 4.9207 17.4176 5.16738 17.2528C5.41405 17.088 5.70406 17 6.00073 17C6.39856 17 6.78009 17.158 7.06139 17.4393C7.3427 17.7206 7.50073 18.1022 7.50073 18.5ZM18.5007 18.5C18.5007 18.7967 18.4128 19.0867 18.2479 19.3334C18.0831 19.58 17.8488 19.7723 17.5748 19.8858C17.3007 19.9993 16.9991 20.0291 16.7081 19.9712C16.4171 19.9133 16.1498 19.7704 15.9401 19.5607C15.7303 19.3509 15.5874 19.0836 15.5296 18.7926C15.4717 18.5017 15.5014 18.2001 15.6149 17.926C15.7284 17.6519 15.9207 17.4176 16.1674 17.2528C16.414 17.088 16.7041 17 17.0007 17C17.3986 17 17.7801 17.158 18.0614 17.4393C18.3427 17.7206 18.5007 18.1022 18.5007 18.5Z" fill="#2193CA"/>
</svg>
