<svg width="37" height="30" viewBox="0 0 37 30" fill="none" xmlns="http://www.w3.org/2000/svg">
<path d="M19.8949 1.0022L19.8949 1.00214C19.7649 0.872687 19.5889 0.8 19.4054 0.8C19.2219 0.8 19.0459 0.872662 18.9159 1.00215L18.9159 1.0022L15.6526 4.25611L14.1933 2.80101L14.1933 2.80098C13.9228 2.5314 13.4847 2.5314 13.2143 2.80098L13.2142 2.801L10.5617 5.44592H4.99255C4.61059 5.44592 4.3 5.75479 4.3 6.13705V11.3641C4.3 11.3837 4.30091 11.4026 4.30241 11.4206V27.6669C4.30241 28.513 4.99225 29.2 5.83934 29.2H28.6505C29.4976 29.2 30.1874 28.513 30.1874 27.6669V22.6867H32.0075C32.3894 22.6867 32.7 22.3778 32.7 21.9956V15.868C32.7 15.4858 32.3894 15.1769 32.0075 15.1769H30.1874V10.1966C30.1874 10.1728 30.1854 10.1431 30.1842 10.1262C30.1841 10.124 30.184 10.1219 30.1838 10.1202V6.13705C30.1838 5.75479 29.8732 5.44592 29.4913 5.44592H24.3514L19.8949 1.0022ZM28.7987 6.8282V8.67105C28.7501 8.66613 28.7007 8.66352 28.6505 8.66352H27.5782L25.7376 6.8282H28.7987ZM24.6901 8.66352L18.9412 2.93104L19.4054 2.46813L25.6186 8.66352H24.6901ZM20.0728 8.66353L16.6325 5.23311L17.9613 3.90812L22.7304 8.66353H20.0728ZM15.5113 6.06928L18.1131 8.66352H17.337L13.3158 4.65384L13.7038 4.26694L14.8148 5.37472L15.5113 6.06928ZM12.3359 5.63092L15.3772 8.66352H9.29451L12.3359 5.63092ZM9.17542 6.8282L7.33479 8.66352H5.83934C5.78707 8.66352 5.73563 8.66632 5.68512 8.67162V6.8282H9.17542ZM28.8023 27.6669C28.8023 27.7493 28.7346 27.8177 28.6505 27.8177H5.83934C5.75527 27.8177 5.68752 27.7494 5.68752 27.6669V10.1966C5.68752 10.1142 5.75528 10.0458 5.83934 10.0458H28.6505C28.7248 10.0458 28.7874 10.1006 28.7987 10.1736V11.3642C28.7987 11.3885 28.8003 11.4112 28.8023 11.4317V15.1769H24.5254C22.4496 15.1769 20.7602 16.8606 20.7602 18.9317C20.7602 21.003 22.4496 22.6867 24.5254 22.6867H28.8023L28.8023 27.6669ZM31.3149 21.3045H29.9874H29.0023H24.5254C23.2127 21.3045 22.1453 20.2393 22.1453 18.9317C22.1453 17.6242 23.2127 16.5592 24.5254 16.5592H29.0023H29.9874H31.3149V21.3045Z" fill="#2193CA" stroke="#2193CA" stroke-width="0.4"/>
<path d="M24.5487 17.148C23.5626 17.148 22.76 17.948 22.76 18.9319C22.76 19.9159 23.5626 20.7158 24.5487 20.7158C25.5349 20.7158 26.3375 19.9159 26.3375 18.9319C26.3375 17.948 25.5349 17.148 24.5487 17.148ZM24.5487 19.5336C24.2157 19.5336 23.9451 19.2633 23.9451 18.9319C23.9451 18.6006 24.2157 18.3303 24.5487 18.3303C24.8817 18.3303 25.1524 18.6006 25.1524 18.9319C25.1524 19.2633 24.8817 19.5336 24.5487 19.5336Z" fill="#2193CA" stroke="#2193CA" stroke-width="0.2"/>
</svg>
