<svg width="37" height="28" viewBox="0 0 37 28" fill="none" xmlns="http://www.w3.org/2000/svg">
<path d="M3.82628 27.9928H21.1857C22.4212 28.092 23.5166 27.1611 23.5698 25.873C23.6229 24.5849 22.5516 23.5238 21.2491 23.5238L21.2491 17.2493H22.0393C23.895 17.1548 24.4116 16.2292 24.4116 14.1128V3.13812C24.4116 2.55 24.6089 2.20563 24.8911 1.95727C25.1732 1.70891 25.5774 1.56834 25.9953 1.56834C26.4131 1.56834 26.825 1.70912 27.1072 1.95727C27.3893 2.20563 27.5804 2.55 27.5804 3.13812V20.3874C27.5804 21.3675 27.9832 22.2009 28.5918 22.7367C29.2005 23.2724 29.9778 23.5239 30.7476 23.5239C31.5174 23.5239 32.3025 23.2726 32.9112 22.7367C33.5198 22.2009 33.9164 21.3675 33.9164 20.3874V14.9H34.7051C35.1448 14.9016 35.5017 14.5482 35.5 14.1128V10.9809C35.5014 10.6193 35.2529 10.3036 34.8984 10.2167L32.3312 9.58417V7.05567C32.3296 6.62501 31.9774 6.27627 31.5425 6.27459C31.1052 6.27301 30.7493 6.62263 30.7476 7.05567V10.1937V14.1128C30.7787 14.6462 30.9439 14.8765 31.5425 14.9H32.3312V20.3874C32.3312 20.9755 32.1402 21.3198 31.858 21.5681C31.5759 21.8165 31.1655 21.9556 30.7476 21.9556C30.3297 21.9556 29.9256 21.8166 29.6434 21.5681C29.3613 21.3198 29.164 20.9755 29.164 20.3874V3.13812C29.1797 2.2051 28.7273 1.4168 28.1588 0.787253C27.5501 0.251489 26.7651 0.000113449 25.9953 6.85343e-05C25.2254 6.85343e-05 24.4481 0.251377 23.8394 0.787253C23.2308 1.32299 22.828 2.15794 22.828 3.13812V11.9075C22.2909 11.7231 21.8415 11.7619 21.2491 11.7619V3.13805C21.2491 1.41508 19.8217 2.24573e-05 18.0819 0H6.9935C5.25367 0 3.82629 1.41508 3.82628 3.13805C3.82624 9.93475 3.82628 16.7291 3.82628 23.5253C2.61713 23.4629 1.55085 24.3769 1.50163 25.6544C1.45241 26.9318 2.52375 27.9928 3.82628 27.9928ZM5.40988 13.1618V3.13812C5.40989 2.26268 6.10951 1.56834 6.99349 1.56834H18.0818C18.9658 1.56834 19.6655 2.26268 19.6655 3.13812V13.1618L12.5377 11.7804L5.40988 13.1618ZM9.3488 3.13812C8.05817 3.13812 6.99348 4.19243 6.99349 5.47054V8.64848C6.99348 9.92767 8.17984 10.9248 9.45396 10.7144L12.5346 10.2044L15.6152 10.7144C16.8893 10.9249 18.0819 9.92767 18.0818 8.64848V5.47054C18.0819 4.19243 17.0172 3.13812 15.7265 3.13812H9.3488ZM9.3488 4.70638H15.7265C16.1613 4.70638 16.4982 5.03997 16.4982 5.47054V8.64848C16.4982 8.98886 16.2171 9.21899 15.8781 9.16303L12.6691 8.63614C12.5821 8.62042 12.4932 8.62042 12.4062 8.63614L9.19725 9.16303C8.85821 9.21895 8.5771 8.98877 8.5771 8.64848V5.47054C8.5771 5.03997 8.91402 4.70638 9.3488 4.70638ZM32.3312 11.1953L33.9164 11.5889V13.3303H32.3312V11.1953ZM21.2491 13.3303H22.0563C22.4947 13.3415 22.828 13.6782 22.828 14.1128V14.9C22.828 15.3424 22.486 15.6811 22.0393 15.6811H21.2491C21.2494 14.8954 21.2491 14.1136 21.2491 13.3303ZM12.5346 13.3482L19.6655 14.7541V23.5235H5.40988V14.7541L12.5346 13.3482ZM14.1831 14.6439C13.9956 14.8753 13.4652 15.2003 12.8207 15.5015C12.1762 15.8028 11.4373 16.1018 10.787 16.5138C10.1368 16.9258 9.4791 17.5637 9.46634 18.4757C9.45563 19.2418 9.87037 19.9587 10.6185 20.7407L10.2782 21.3242C10.0594 21.6982 10.1874 22.177 10.5643 22.3948C10.9423 22.6126 11.4269 22.4858 11.6469 22.1115L11.9871 21.5249C13.0456 21.7744 13.8803 21.7688 14.545 21.3765C15.3361 20.9095 15.5677 20.0266 15.6028 19.2629C15.5878 17.9161 15.1584 16.8091 15.5394 15.4204C15.7573 14.7311 14.6318 14.2495 14.1831 14.6439ZM13.9264 16.6363C13.8451 17.4732 13.988 18.3773 14.0192 19.1939C13.9942 19.7374 13.8937 19.9384 13.7331 20.0332C13.6278 20.0954 13.2653 20.1154 12.7109 20.0265C12.697 19.7621 12.5492 19.5224 12.3181 19.3893C12.0558 19.2049 11.7808 19.2588 11.5665 19.3691C11.2119 18.9348 11.0482 18.6133 11.0499 18.4916C11.0525 18.3063 11.1779 18.1247 11.6407 17.8314C12.4851 17.4061 13.1935 17.0389 13.9264 16.6338L13.9264 16.6363ZM3.82627 25.0918H21.2491C21.6264 25.1156 22.0038 25.241 22.0038 25.7412C22.026 26.29 21.5539 26.4369 21.2491 26.4241H3.82627C3.39614 26.4241 3.0897 26.1995 3.0654 25.7809C3.06762 25.2682 3.39802 25.1178 3.82627 25.0918Z" fill="#2193CA"/>
</svg>
