<svg width="29" height="30" viewBox="0 0 29 30" fill="none" xmlns="http://www.w3.org/2000/svg">
<path d="M13.914 0.9H13.814V1V6.29087V6.39087H13.914H14.5C15.4104 6.39087 15.9012 7.03819 15.95 7.70113C15.9743 8.03413 15.8769 8.33122 15.6724 8.53924L15.6715 8.54015C15.4671 8.7534 15.1315 8.92548 14.5 8.92548C14.2039 8.92548 13.8302 8.77167 13.5524 8.51245L13.5524 8.51244L13.5508 8.51098C13.2662 8.2568 13.1023 7.91945 13.1023 7.65817V7.55817H13.0023H11.8302H11.7302V7.65817C11.7302 8.34794 12.0872 8.96131 12.5828 9.4199L12.5838 9.4208C13.0867 9.8738 13.7543 10.1955 14.5 10.1955C15.4323 10.1955 16.2028 9.89148 16.688 9.39242C17.1789 8.88818 17.3691 8.23482 17.3216 7.61486C17.2418 6.55423 16.4486 5.4872 15.186 5.19822V1V0.9H15.086H13.914ZM10.8762 9.29425L10.8225 9.21925L10.7435 9.26668L1.77303 14.6467L1.46331 14.8325H1.82447H3.95377H3.98147L4.00522 14.8182L11.4845 10.3299L11.5774 10.2741L11.5143 10.186L10.8762 9.29425ZM18.2566 9.26669L18.1775 9.21924L18.1238 9.29425L17.4857 10.186L17.4226 10.2741L17.5155 10.3299L24.9974 14.8182L25.0211 14.8325H25.0488H27.1716H27.5327L27.2231 14.6467L18.2566 9.26669ZM0.5 15.7025H0.4V15.8025V29V29.1H0.5H28.5H28.6V29V15.8025V15.7025H28.5H0.5ZM1.92447 17.2699H4.23372V27.5327H1.92447V17.2699ZM5.52907 17.2699H8.06744V27.5327H5.52907V17.2699ZM9.32558 17.2699H11.333V27.5327H9.32558V17.2699ZM12.4512 17.2699H14.4V27.5327H12.4512V17.2699ZM15.5767 17.2699H17.467V27.5327H15.5767V17.2699ZM18.7023 17.2699H20.664V27.5327H18.7023V17.2699ZM21.8279 17.2699H23.95V27.5327H21.8279V17.2699ZM25.1488 17.2699H27.0716V27.5327H25.1488V17.2699Z" fill="#2193CA" stroke="#2193CA" stroke-width="0.2"/>
</svg>
