<svg width="31" height="30" viewBox="0 0 31 30" fill="none" xmlns="http://www.w3.org/2000/svg">
<path d="M10.0619 0.857069L9.9199 0.811854L9.87377 0.953577L0.857364 28.6568L0.81033 28.8013L0.955446 28.8464L1.90955 29.1432L2.05092 29.1872L2.09674 29.0464L11.1106 1.34939L11.1574 1.20584L11.0135 1.16004L10.0619 0.857069ZM21.1275 0.953583L21.0814 0.811852L20.9393 0.857069L19.9877 1.16004L19.8439 1.20584L19.8906 1.3494L28.9058 29.0464L28.9516 29.1873L29.0931 29.1432L30.0447 28.8464L30.1896 28.8012L30.1426 28.6568L21.1275 0.953583ZM14.9121 3.22739H14.7681L14.7623 3.37132L14.7122 4.60793L14.7059 4.764H14.8621H16.1392H16.2954L16.2891 4.60793L16.239 3.37132L16.2332 3.22739H16.0891H14.9121ZM14.8182 5.45329H14.6743L14.6684 5.59713L14.587 7.57571L14.5805 7.73187H14.7368H16.2644H16.4207L16.4143 7.57571L16.3329 5.59713L16.327 5.45329H16.183H14.8182ZM14.6993 8.42116H14.5555L14.5494 8.56484L14.4242 11.5327L14.4176 11.689H14.5741H16.4272H16.5836L16.577 11.5327L16.4518 8.56484L16.4458 8.42116H16.302H14.6993ZM14.524 12.6256H14.3799L14.3741 12.7696L14.2239 16.4794L14.2175 16.6355H14.3737H16.6275H16.7837L16.7774 16.4794L16.6271 12.7696L16.6213 12.6256H16.4773H14.524ZM14.3174 17.8194H14.1734L14.1675 17.9633L13.986 22.4151L13.9796 22.5712H14.1358H16.8654H17.0217L17.0153 22.4151L16.8337 17.9633L16.8279 17.8194H16.6839H14.3174ZM14.067 24.0025H13.923L13.9171 24.1463L13.723 28.8454L13.7166 29.0016H13.8729H17.1284H17.2847L17.2782 28.8454L17.0842 24.1463L17.0782 24.0025H16.9343H14.067Z" fill="#2193CA" stroke="#2193CA" stroke-width="0.3"/>
</svg>
