<svg width="23" height="28" viewBox="0 0 23 28" fill="none" xmlns="http://www.w3.org/2000/svg">
<path d="M22.5374 3.58787L11.9732 0.0639061C11.8458 0.021302 11.6748 0 11.5038 0C11.3328 0 11.1618 0.021302 11.0343 0.0639061L0.470181 3.58787C0.21214 3.67308 0.000732422 3.96522 0.000732422 4.23302V18.9132C0.000732422 19.181 0.177942 19.534 0.392458 19.7013L11.1089 27.8752C11.2178 27.9574 11.3577 28 11.5007 28C11.6437 28 11.7867 27.9574 11.8924 27.8752L22.6089 19.7013C22.8234 19.537 23.0006 19.184 23.0006 18.9132V4.23302C23.0068 3.96522 22.7954 3.67612 22.5374 3.58787ZM20.7684 18.3289L11.5038 25.3951L2.23916 18.3289V5.31638L11.5038 2.22454L20.7684 5.31638V18.3289ZM8.15235 12.2122C8.05908 12.0874 7.90985 12.0113 7.74819 12.0113H6.03206C5.82998 12.0113 5.71184 12.2365 5.82998 12.3978L9.75966 17.6929C9.80613 17.7551 9.86695 17.8058 9.93718 17.8407C10.0074 17.8756 10.0851 17.8938 10.1638 17.8938C10.2426 17.8938 10.3202 17.8756 10.3905 17.8407C10.4607 17.8058 10.5215 17.7551 10.568 17.6929L17.1776 8.78557C17.2957 8.62428 17.1776 8.39909 16.9755 8.39909H15.2594C15.1008 8.39909 14.9485 8.47517 14.8552 8.59994L10.1638 14.9236L8.15235 12.2122Z" fill="#2193CA"/>
</svg>
