<svg width="29" height="28" viewBox="0 0 29 28" fill="none" xmlns="http://www.w3.org/2000/svg">
<mask id="path-1-outside-1_177_2571" maskUnits="userSpaceOnUse" x="-0.5" y="-1" width="30" height="30" fill="black">
<rect fill="white" x="-0.5" y="-1" width="30" height="30"/>
<path d="M12 0C11.8803 8.68582e-05 11.7646 0.0430924 11.674 0.121205C11.5833 0.199317 11.5236 0.307354 11.5059 0.425691L11.0352 3.59689C10.5413 3.76166 10.0613 3.95962 9.59571 4.19247L7.02149 2.28272C6.92502 2.21116 6.80601 2.17672 6.68622 2.18568C6.56644 2.19465 6.45388 2.24642 6.36914 2.33154L2.83203 5.8679C2.74741 5.9525 2.69595 6.06465 2.68699 6.18397C2.67803 6.30328 2.71217 6.42185 2.7832 6.51815L4.69141 9.08987C4.4587 9.55647 4.25995 10.0381 4.0957 10.5329L0.927736 11.0016C0.808685 11.019 0.699898 11.0787 0.621332 11.1698C0.542766 11.2609 0.499689 11.3773 0.500002 11.4976V16.4965C0.500089 16.6162 0.543103 16.7318 0.621232 16.8225C0.699361 16.9131 0.807421 16.9728 0.925783 16.9905L4.09961 17.4611C4.26411 17.9539 4.46287 18.4337 4.69531 18.8983L2.7832 21.474C2.71164 21.5704 2.67718 21.6894 2.68615 21.8092C2.69511 21.9289 2.7469 22.0414 2.83203 22.1262L6.36914 25.6625C6.45413 25.7473 6.56681 25.7988 6.68659 25.8074C6.80637 25.816 6.92524 25.7812 7.02149 25.7094L9.5918 23.8035C10.059 24.0365 10.5416 24.2347 11.0371 24.3991L11.502 27.5391V27.543L11.5059 27.5664C11.5147 27.6322 11.5366 27.6955 11.5701 27.7527C11.6037 27.8099 11.6483 27.8599 11.7014 27.8997C11.7545 27.9395 11.815 27.9683 11.8793 27.9845C11.9436 28.0007 12.0106 28.004 12.0762 27.9941H16.9238C16.9929 28.0048 17.0634 28.001 17.1308 27.9828C17.1983 27.9646 17.2612 27.9325 17.3155 27.8885C17.3698 27.8445 17.4142 27.7897 17.446 27.7275C17.4778 27.6653 17.4962 27.5971 17.5 27.5274L17.9648 24.3952C18.4587 24.2304 18.9387 24.0325 19.4043 23.7996L21.9785 25.7094C22.075 25.7809 22.194 25.8154 22.3138 25.8064C22.4336 25.7975 22.5461 25.7457 22.6309 25.6606L26.168 22.1242C26.2526 22.0396 26.3041 21.9275 26.313 21.8081C26.322 21.6888 26.2878 21.5703 26.2168 21.474L24.3086 18.9003C24.5413 18.4337 24.7401 17.954 24.9043 17.4592L28.0723 16.9886C28.1907 16.9713 28.2989 16.9121 28.3774 16.8218C28.4559 16.7315 28.4994 16.6161 28.5 16.4965V11.4976C28.5004 11.3776 28.4576 11.2614 28.3794 11.1704C28.3012 11.0793 28.1929 11.0194 28.0742 11.0016L24.9004 10.531C24.7359 10.0382 24.5371 9.55837 24.3047 9.09377L26.2168 6.51815C26.2878 6.42185 26.322 6.30328 26.313 6.18397C26.3041 6.06465 26.2526 5.9525 26.168 5.8679L22.6309 2.33154C22.5464 2.24613 22.4339 2.19399 22.3141 2.18467C22.1944 2.17535 22.0752 2.20946 21.9785 2.28077L19.4082 4.18661C18.941 3.95366 18.4584 3.7555 17.9629 3.59103L17.4941 0.423738C17.4759 0.305758 17.4161 0.198182 17.3255 0.120464C17.2349 0.042746 17.1194 1.56754e-05 17 0H12ZM12.4316 0.999788H16.5684L17.0156 4.01673C17.0295 4.11086 17.0699 4.19907 17.1322 4.27102C17.1945 4.34297 17.276 4.39565 17.3672 4.42289C18.0181 4.61695 18.6478 4.87648 19.2461 5.19812C19.3298 5.24312 19.4246 5.26335 19.5194 5.25643C19.6141 5.24951 19.705 5.21574 19.7813 5.15906L22.2285 3.34304L25.1563 6.2682L23.334 8.72276C23.2776 8.7992 23.2442 8.89013 23.2376 8.98488C23.231 9.07964 23.2516 9.1743 23.2969 9.2578C23.6181 9.85367 23.8777 10.4802 24.0723 11.1285C24.0994 11.2194 24.1518 11.3007 24.2234 11.3629C24.2949 11.4252 24.3828 11.4658 24.4766 11.48L27.5 11.9272V16.0649L24.4824 16.5102C24.3883 16.524 24.3 16.5645 24.2281 16.6267C24.1561 16.689 24.1034 16.7705 24.0762 16.8617C23.8821 17.5125 23.6225 18.1421 23.3008 18.7402C23.2555 18.8237 23.2349 18.9183 23.2415 19.0131C23.2481 19.1078 23.2815 19.1988 23.3379 19.2752L25.1563 21.7239L22.2285 24.6491L19.7754 22.8291C19.6991 22.7725 19.6083 22.7387 19.5135 22.7318C19.4187 22.7249 19.3239 22.7451 19.2402 22.7901C18.6856 23.089 18.1009 23.329 17.5 23.5184V19.1834C19.2903 18.1441 20.5 16.2112 20.5 13.997C20.4974 11.7462 19.2319 9.68531 17.2266 8.66222C17.1505 8.62359 17.0658 8.60505 16.9806 8.60837C16.8954 8.61168 16.8124 8.63674 16.7396 8.68117C16.6668 8.72559 16.6065 8.7879 16.5646 8.86217C16.5226 8.93644 16.5004 9.0202 16.5 9.10549V13.7139L14.5 14.9129L12.5 13.7139V9.09963C12.5 9.03265 12.4866 8.96635 12.4605 8.90466C12.4344 8.84297 12.3962 8.78716 12.3481 8.74053C12.3 8.6939 12.243 8.65741 12.1805 8.63322C12.118 8.60904 12.0513 8.59765 11.9844 8.59974C11.9109 8.60224 11.8389 8.62091 11.7734 8.65441C9.76607 9.6786 8.50024 11.7438 8.5 13.997C8.5 16.2112 9.70966 18.1441 11.5 19.1834V23.5224C10.8969 23.3333 10.3108 23.0934 9.75391 22.794C9.67021 22.749 9.57543 22.7288 9.48065 22.7357C9.38587 22.7426 9.29502 22.7764 9.21875 22.833L6.77149 24.6491L3.84375 21.7239L5.66602 19.2693C5.7224 19.1929 5.75584 19.102 5.76241 19.0072C5.76898 18.9125 5.74842 18.8178 5.70313 18.7343C5.38189 18.1384 5.12228 17.5119 4.92774 16.8636C4.90064 16.7727 4.84823 16.6914 4.77664 16.6292C4.70506 16.5669 4.61724 16.5263 4.52344 16.5121L1.5 16.0649V11.9291L4.51758 11.4819C4.61173 11.4681 4.69997 11.4276 4.77193 11.3654C4.84389 11.3031 4.89659 11.2216 4.92383 11.1305C5.11791 10.4796 5.37753 9.85002 5.69922 9.25194C5.74451 9.16845 5.76507 9.07378 5.7585 8.97902C5.75193 8.88427 5.71849 8.79335 5.66211 8.7169L3.84375 6.2682L6.77149 3.34304L9.22461 5.16297C9.30088 5.21964 9.39173 5.25342 9.48651 5.26034C9.58129 5.26725 9.67607 5.24702 9.75977 5.20202C10.3557 4.88089 10.9844 4.6194 11.6328 4.42484C11.7234 4.39743 11.8043 4.34491 11.8662 4.27336C11.9281 4.20181 11.9684 4.11417 11.9824 4.02063L12.4316 0.999788ZM11.5 10.2166V13.997C11.5001 14.0831 11.5225 14.1677 11.5649 14.2427C11.6073 14.3176 11.6684 14.3803 11.7422 14.4247L14.2422 15.9244C14.32 15.9712 14.4092 15.9959 14.5 15.9959C14.5908 15.9959 14.68 15.9712 14.7578 15.9244L17.2578 14.4247C17.3316 14.3803 17.3927 14.3176 17.4351 14.2427C17.4775 14.1677 17.4999 14.0831 17.5 13.997V10.2224C18.6705 11.1583 19.4982 12.4622 19.5 13.997C19.5 16.7637 17.2673 18.996 14.5 18.996C11.7327 18.996 9.5 16.7637 9.5 13.997C9.50016 12.4605 10.3283 11.1537 11.5 10.2166ZM12.5 19.6443C13.127 19.8671 13.7977 19.9958 14.5 19.9958C15.2023 19.9958 15.873 19.8671 16.5 19.6443V26.9943H12.5V19.6443Z"/>
</mask>
<path d="M12 0C11.8803 8.68582e-05 11.7646 0.0430924 11.674 0.121205C11.5833 0.199317 11.5236 0.307354 11.5059 0.425691L11.0352 3.59689C10.5413 3.76166 10.0613 3.95962 9.59571 4.19247L7.02149 2.28272C6.92502 2.21116 6.80601 2.17672 6.68622 2.18568C6.56644 2.19465 6.45388 2.24642 6.36914 2.33154L2.83203 5.8679C2.74741 5.9525 2.69595 6.06465 2.68699 6.18397C2.67803 6.30328 2.71217 6.42185 2.7832 6.51815L4.69141 9.08987C4.4587 9.55647 4.25995 10.0381 4.0957 10.5329L0.927736 11.0016C0.808685 11.019 0.699898 11.0787 0.621332 11.1698C0.542766 11.2609 0.499689 11.3773 0.500002 11.4976V16.4965C0.500089 16.6162 0.543103 16.7318 0.621232 16.8225C0.699361 16.9131 0.807421 16.9728 0.925783 16.9905L4.09961 17.4611C4.26411 17.9539 4.46287 18.4337 4.69531 18.8983L2.7832 21.474C2.71164 21.5704 2.67718 21.6894 2.68615 21.8092C2.69511 21.9289 2.7469 22.0414 2.83203 22.1262L6.36914 25.6625C6.45413 25.7473 6.56681 25.7988 6.68659 25.8074C6.80637 25.816 6.92524 25.7812 7.02149 25.7094L9.5918 23.8035C10.059 24.0365 10.5416 24.2347 11.0371 24.3991L11.502 27.5391V27.543L11.5059 27.5664C11.5147 27.6322 11.5366 27.6955 11.5701 27.7527C11.6037 27.8099 11.6483 27.8599 11.7014 27.8997C11.7545 27.9395 11.815 27.9683 11.8793 27.9845C11.9436 28.0007 12.0106 28.004 12.0762 27.9941H16.9238C16.9929 28.0048 17.0634 28.001 17.1308 27.9828C17.1983 27.9646 17.2612 27.9325 17.3155 27.8885C17.3698 27.8445 17.4142 27.7897 17.446 27.7275C17.4778 27.6653 17.4962 27.5971 17.5 27.5274L17.9648 24.3952C18.4587 24.2304 18.9387 24.0325 19.4043 23.7996L21.9785 25.7094C22.075 25.7809 22.194 25.8154 22.3138 25.8064C22.4336 25.7975 22.5461 25.7457 22.6309 25.6606L26.168 22.1242C26.2526 22.0396 26.3041 21.9275 26.313 21.8081C26.322 21.6888 26.2878 21.5703 26.2168 21.474L24.3086 18.9003C24.5413 18.4337 24.7401 17.954 24.9043 17.4592L28.0723 16.9886C28.1907 16.9713 28.2989 16.9121 28.3774 16.8218C28.4559 16.7315 28.4994 16.6161 28.5 16.4965V11.4976C28.5004 11.3776 28.4576 11.2614 28.3794 11.1704C28.3012 11.0793 28.1929 11.0194 28.0742 11.0016L24.9004 10.531C24.7359 10.0382 24.5371 9.55837 24.3047 9.09377L26.2168 6.51815C26.2878 6.42185 26.322 6.30328 26.313 6.18397C26.3041 6.06465 26.2526 5.9525 26.168 5.8679L22.6309 2.33154C22.5464 2.24613 22.4339 2.19399 22.3141 2.18467C22.1944 2.17535 22.0752 2.20946 21.9785 2.28077L19.4082 4.18661C18.941 3.95366 18.4584 3.7555 17.9629 3.59103L17.4941 0.423738C17.4759 0.305758 17.4161 0.198182 17.3255 0.120464C17.2349 0.042746 17.1194 1.56754e-05 17 0H12ZM12.4316 0.999788H16.5684L17.0156 4.01673C17.0295 4.11086 17.0699 4.19907 17.1322 4.27102C17.1945 4.34297 17.276 4.39565 17.3672 4.42289C18.0181 4.61695 18.6478 4.87648 19.2461 5.19812C19.3298 5.24312 19.4246 5.26335 19.5194 5.25643C19.6141 5.24951 19.705 5.21574 19.7813 5.15906L22.2285 3.34304L25.1563 6.2682L23.334 8.72276C23.2776 8.7992 23.2442 8.89013 23.2376 8.98488C23.231 9.07964 23.2516 9.1743 23.2969 9.2578C23.6181 9.85367 23.8777 10.4802 24.0723 11.1285C24.0994 11.2194 24.1518 11.3007 24.2234 11.3629C24.2949 11.4252 24.3828 11.4658 24.4766 11.48L27.5 11.9272V16.0649L24.4824 16.5102C24.3883 16.524 24.3 16.5645 24.2281 16.6267C24.1561 16.689 24.1034 16.7705 24.0762 16.8617C23.8821 17.5125 23.6225 18.1421 23.3008 18.7402C23.2555 18.8237 23.2349 18.9183 23.2415 19.0131C23.2481 19.1078 23.2815 19.1988 23.3379 19.2752L25.1563 21.7239L22.2285 24.6491L19.7754 22.8291C19.6991 22.7725 19.6083 22.7387 19.5135 22.7318C19.4187 22.7249 19.3239 22.7451 19.2402 22.7901C18.6856 23.089 18.1009 23.329 17.5 23.5184V19.1834C19.2903 18.1441 20.5 16.2112 20.5 13.997C20.4974 11.7462 19.2319 9.68531 17.2266 8.66222C17.1505 8.62359 17.0658 8.60505 16.9806 8.60837C16.8954 8.61168 16.8124 8.63674 16.7396 8.68117C16.6668 8.72559 16.6065 8.7879 16.5646 8.86217C16.5226 8.93644 16.5004 9.0202 16.5 9.10549V13.7139L14.5 14.9129L12.5 13.7139V9.09963C12.5 9.03265 12.4866 8.96635 12.4605 8.90466C12.4344 8.84297 12.3962 8.78716 12.3481 8.74053C12.3 8.6939 12.243 8.65741 12.1805 8.63322C12.118 8.60904 12.0513 8.59765 11.9844 8.59974C11.9109 8.60224 11.8389 8.62091 11.7734 8.65441C9.76607 9.6786 8.50024 11.7438 8.5 13.997C8.5 16.2112 9.70966 18.1441 11.5 19.1834V23.5224C10.8969 23.3333 10.3108 23.0934 9.75391 22.794C9.67021 22.749 9.57543 22.7288 9.48065 22.7357C9.38587 22.7426 9.29502 22.7764 9.21875 22.833L6.77149 24.6491L3.84375 21.7239L5.66602 19.2693C5.7224 19.1929 5.75584 19.102 5.76241 19.0072C5.76898 18.9125 5.74842 18.8178 5.70313 18.7343C5.38189 18.1384 5.12228 17.5119 4.92774 16.8636C4.90064 16.7727 4.84823 16.6914 4.77664 16.6292C4.70506 16.5669 4.61724 16.5263 4.52344 16.5121L1.5 16.0649V11.9291L4.51758 11.4819C4.61173 11.4681 4.69997 11.4276 4.77193 11.3654C4.84389 11.3031 4.89659 11.2216 4.92383 11.1305C5.11791 10.4796 5.37753 9.85002 5.69922 9.25194C5.74451 9.16845 5.76507 9.07378 5.7585 8.97902C5.75193 8.88427 5.71849 8.79335 5.66211 8.7169L3.84375 6.2682L6.77149 3.34304L9.22461 5.16297C9.30088 5.21964 9.39173 5.25342 9.48651 5.26034C9.58129 5.26725 9.67607 5.24702 9.75977 5.20202C10.3557 4.88089 10.9844 4.6194 11.6328 4.42484C11.7234 4.39743 11.8043 4.34491 11.8662 4.27336C11.9281 4.20181 11.9684 4.11417 11.9824 4.02063L12.4316 0.999788ZM11.5 10.2166V13.997C11.5001 14.0831 11.5225 14.1677 11.5649 14.2427C11.6073 14.3176 11.6684 14.3803 11.7422 14.4247L14.2422 15.9244C14.32 15.9712 14.4092 15.9959 14.5 15.9959C14.5908 15.9959 14.68 15.9712 14.7578 15.9244L17.2578 14.4247C17.3316 14.3803 17.3927 14.3176 17.4351 14.2427C17.4775 14.1677 17.4999 14.0831 17.5 13.997V10.2224C18.6705 11.1583 19.4982 12.4622 19.5 13.997C19.5 16.7637 17.2673 18.996 14.5 18.996C11.7327 18.996 9.5 16.7637 9.5 13.997C9.50016 12.4605 10.3283 11.1537 11.5 10.2166ZM12.5 19.6443C13.127 19.8671 13.7977 19.9958 14.5 19.9958C15.2023 19.9958 15.873 19.8671 16.5 19.6443V26.9943H12.5V19.6443Z" fill="#2193CA"/>
<path d="M12 0C11.8803 8.68582e-05 11.7646 0.0430924 11.674 0.121205C11.5833 0.199317 11.5236 0.307354 11.5059 0.425691L11.0352 3.59689C10.5413 3.76166 10.0613 3.95962 9.59571 4.19247L7.02149 2.28272C6.92502 2.21116 6.80601 2.17672 6.68622 2.18568C6.56644 2.19465 6.45388 2.24642 6.36914 2.33154L2.83203 5.8679C2.74741 5.9525 2.69595 6.06465 2.68699 6.18397C2.67803 6.30328 2.71217 6.42185 2.7832 6.51815L4.69141 9.08987C4.4587 9.55647 4.25995 10.0381 4.0957 10.5329L0.927736 11.0016C0.808685 11.019 0.699898 11.0787 0.621332 11.1698C0.542766 11.2609 0.499689 11.3773 0.500002 11.4976V16.4965C0.500089 16.6162 0.543103 16.7318 0.621232 16.8225C0.699361 16.9131 0.807421 16.9728 0.925783 16.9905L4.09961 17.4611C4.26411 17.9539 4.46287 18.4337 4.69531 18.8983L2.7832 21.474C2.71164 21.5704 2.67718 21.6894 2.68615 21.8092C2.69511 21.9289 2.7469 22.0414 2.83203 22.1262L6.36914 25.6625C6.45413 25.7473 6.56681 25.7988 6.68659 25.8074C6.80637 25.816 6.92524 25.7812 7.02149 25.7094L9.5918 23.8035C10.059 24.0365 10.5416 24.2347 11.0371 24.3991L11.502 27.5391V27.543L11.5059 27.5664C11.5147 27.6322 11.5366 27.6955 11.5701 27.7527C11.6037 27.8099 11.6483 27.8599 11.7014 27.8997C11.7545 27.9395 11.815 27.9683 11.8793 27.9845C11.9436 28.0007 12.0106 28.004 12.0762 27.9941H16.9238C16.9929 28.0048 17.0634 28.001 17.1308 27.9828C17.1983 27.9646 17.2612 27.9325 17.3155 27.8885C17.3698 27.8445 17.4142 27.7897 17.446 27.7275C17.4778 27.6653 17.4962 27.5971 17.5 27.5274L17.9648 24.3952C18.4587 24.2304 18.9387 24.0325 19.4043 23.7996L21.9785 25.7094C22.075 25.7809 22.194 25.8154 22.3138 25.8064C22.4336 25.7975 22.5461 25.7457 22.6309 25.6606L26.168 22.1242C26.2526 22.0396 26.3041 21.9275 26.313 21.8081C26.322 21.6888 26.2878 21.5703 26.2168 21.474L24.3086 18.9003C24.5413 18.4337 24.7401 17.954 24.9043 17.4592L28.0723 16.9886C28.1907 16.9713 28.2989 16.9121 28.3774 16.8218C28.4559 16.7315 28.4994 16.6161 28.5 16.4965V11.4976C28.5004 11.3776 28.4576 11.2614 28.3794 11.1704C28.3012 11.0793 28.1929 11.0194 28.0742 11.0016L24.9004 10.531C24.7359 10.0382 24.5371 9.55837 24.3047 9.09377L26.2168 6.51815C26.2878 6.42185 26.322 6.30328 26.313 6.18397C26.3041 6.06465 26.2526 5.9525 26.168 5.8679L22.6309 2.33154C22.5464 2.24613 22.4339 2.19399 22.3141 2.18467C22.1944 2.17535 22.0752 2.20946 21.9785 2.28077L19.4082 4.18661C18.941 3.95366 18.4584 3.7555 17.9629 3.59103L17.4941 0.423738C17.4759 0.305758 17.4161 0.198182 17.3255 0.120464C17.2349 0.042746 17.1194 1.56754e-05 17 0H12ZM12.4316 0.999788H16.5684L17.0156 4.01673C17.0295 4.11086 17.0699 4.19907 17.1322 4.27102C17.1945 4.34297 17.276 4.39565 17.3672 4.42289C18.0181 4.61695 18.6478 4.87648 19.2461 5.19812C19.3298 5.24312 19.4246 5.26335 19.5194 5.25643C19.6141 5.24951 19.705 5.21574 19.7813 5.15906L22.2285 3.34304L25.1563 6.2682L23.334 8.72276C23.2776 8.7992 23.2442 8.89013 23.2376 8.98488C23.231 9.07964 23.2516 9.1743 23.2969 9.2578C23.6181 9.85367 23.8777 10.4802 24.0723 11.1285C24.0994 11.2194 24.1518 11.3007 24.2234 11.3629C24.2949 11.4252 24.3828 11.4658 24.4766 11.48L27.5 11.9272V16.0649L24.4824 16.5102C24.3883 16.524 24.3 16.5645 24.2281 16.6267C24.1561 16.689 24.1034 16.7705 24.0762 16.8617C23.8821 17.5125 23.6225 18.1421 23.3008 18.7402C23.2555 18.8237 23.2349 18.9183 23.2415 19.0131C23.2481 19.1078 23.2815 19.1988 23.3379 19.2752L25.1563 21.7239L22.2285 24.6491L19.7754 22.8291C19.6991 22.7725 19.6083 22.7387 19.5135 22.7318C19.4187 22.7249 19.3239 22.7451 19.2402 22.7901C18.6856 23.089 18.1009 23.329 17.5 23.5184V19.1834C19.2903 18.1441 20.5 16.2112 20.5 13.997C20.4974 11.7462 19.2319 9.68531 17.2266 8.66222C17.1505 8.62359 17.0658 8.60505 16.9806 8.60837C16.8954 8.61168 16.8124 8.63674 16.7396 8.68117C16.6668 8.72559 16.6065 8.7879 16.5646 8.86217C16.5226 8.93644 16.5004 9.0202 16.5 9.10549V13.7139L14.5 14.9129L12.5 13.7139V9.09963C12.5 9.03265 12.4866 8.96635 12.4605 8.90466C12.4344 8.84297 12.3962 8.78716 12.3481 8.74053C12.3 8.6939 12.243 8.65741 12.1805 8.63322C12.118 8.60904 12.0513 8.59765 11.9844 8.59974C11.9109 8.60224 11.8389 8.62091 11.7734 8.65441C9.76607 9.6786 8.50024 11.7438 8.5 13.997C8.5 16.2112 9.70966 18.1441 11.5 19.1834V23.5224C10.8969 23.3333 10.3108 23.0934 9.75391 22.794C9.67021 22.749 9.57543 22.7288 9.48065 22.7357C9.38587 22.7426 9.29502 22.7764 9.21875 22.833L6.77149 24.6491L3.84375 21.7239L5.66602 19.2693C5.7224 19.1929 5.75584 19.102 5.76241 19.0072C5.76898 18.9125 5.74842 18.8178 5.70313 18.7343C5.38189 18.1384 5.12228 17.5119 4.92774 16.8636C4.90064 16.7727 4.84823 16.6914 4.77664 16.6292C4.70506 16.5669 4.61724 16.5263 4.52344 16.5121L1.5 16.0649V11.9291L4.51758 11.4819C4.61173 11.4681 4.69997 11.4276 4.77193 11.3654C4.84389 11.3031 4.89659 11.2216 4.92383 11.1305C5.11791 10.4796 5.37753 9.85002 5.69922 9.25194C5.74451 9.16845 5.76507 9.07378 5.7585 8.97902C5.75193 8.88427 5.71849 8.79335 5.66211 8.7169L3.84375 6.2682L6.77149 3.34304L9.22461 5.16297C9.30088 5.21964 9.39173 5.25342 9.48651 5.26034C9.58129 5.26725 9.67607 5.24702 9.75977 5.20202C10.3557 4.88089 10.9844 4.6194 11.6328 4.42484C11.7234 4.39743 11.8043 4.34491 11.8662 4.27336C11.9281 4.20181 11.9684 4.11417 11.9824 4.02063L12.4316 0.999788ZM11.5 10.2166V13.997C11.5001 14.0831 11.5225 14.1677 11.5649 14.2427C11.6073 14.3176 11.6684 14.3803 11.7422 14.4247L14.2422 15.9244C14.32 15.9712 14.4092 15.9959 14.5 15.9959C14.5908 15.9959 14.68 15.9712 14.7578 15.9244L17.2578 14.4247C17.3316 14.3803 17.3927 14.3176 17.4351 14.2427C17.4775 14.1677 17.4999 14.0831 17.5 13.997V10.2224C18.6705 11.1583 19.4982 12.4622 19.5 13.997C19.5 16.7637 17.2673 18.996 14.5 18.996C11.7327 18.996 9.5 16.7637 9.5 13.997C9.50016 12.4605 10.3283 11.1537 11.5 10.2166ZM12.5 19.6443C13.127 19.8671 13.7977 19.9958 14.5 19.9958C15.2023 19.9958 15.873 19.8671 16.5 19.6443V26.9943H12.5V19.6443Z" stroke="#2193CA" stroke-width="0.8" mask="url(#path-1-outside-1_177_2571)"/>
</svg>
