<svg width="25" height="26" viewBox="0 0 25 26" fill="none" xmlns="http://www.w3.org/2000/svg">
<path d="M9.94518 3.66667L12.5007 1M7.38962 18.3333L17.6118 7.66667M12.5007 25L15.0563 22.3333M18.2507 22.3333C19.098 22.3333 19.9105 21.9821 20.5095 21.357C21.1086 20.7319 21.4452 19.8841 21.4452 19C21.4452 18.1159 21.1086 17.2681 20.5095 16.643C19.9105 16.0179 19.098 15.6667 18.2507 15.6667C17.4035 15.6667 16.591 16.0179 15.9919 16.643C15.3928 17.2681 15.0563 18.1159 15.0563 19C15.0563 19.8841 15.3928 20.7319 15.9919 21.357C16.591 21.9821 17.4035 22.3333 18.2507 22.3333ZM6.75073 10.3333C7.59795 10.3333 8.41047 9.98214 9.00955 9.35702C9.60862 8.7319 9.94518 7.88406 9.94518 7C9.94518 6.11595 9.60862 5.2681 9.00955 4.64298C8.41047 4.01786 7.59795 3.66667 6.75073 3.66667C5.90351 3.66667 5.09099 4.01786 4.49192 4.64298C3.89284 5.2681 3.55629 6.11595 3.55629 7C3.55629 7.88406 3.89284 8.7319 4.49192 9.35702C5.09099 9.98214 5.90351 10.3333 6.75073 10.3333ZM4.19518 25C5.0424 25 5.85492 24.6488 6.45399 24.0237C7.05306 23.3986 7.38962 22.5507 7.38962 21.6667C7.38962 20.7826 7.05306 19.9348 6.45399 19.3096C5.85492 18.6845 5.0424 18.3333 4.19518 18.3333C3.34796 18.3333 2.53544 18.6845 1.93636 19.3096C1.33729 19.9348 1.00073 20.7826 1.00073 21.6667C1.00073 22.5507 1.33729 23.3986 1.93636 24.0237C2.53544 24.6488 3.34796 25 4.19518 25ZM20.8063 7.66667C21.6535 7.66667 22.466 7.31548 23.0651 6.69036C23.6642 6.06523 24.0007 5.21739 24.0007 4.33333C24.0007 3.44928 23.6642 2.60143 23.0651 1.97631C22.466 1.35119 21.6535 1 20.8063 1C19.9591 1 19.1465 1.35119 18.5475 1.97631C17.9484 2.60143 17.6118 3.44928 17.6118 4.33333C17.6118 5.21739 17.9484 6.06523 18.5475 6.69036C19.1465 7.31548 19.9591 7.66667 20.8063 7.66667Z" stroke="#2193CA" stroke-width="1.9" stroke-linecap="round" stroke-linejoin="round"/>
</svg>
