<svg width="27" height="30" viewBox="0 0 27 30" fill="none" xmlns="http://www.w3.org/2000/svg">
<path d="M23.3189 5.30762H3.68255C2.47757 5.30762 1.50073 6.27193 1.50073 7.46146V16.0768C1.50073 17.2664 2.47757 18.2307 3.68255 18.2307H23.3189C24.5239 18.2307 25.5007 17.2664 25.5007 16.0768V7.46146C25.5007 6.27193 24.5239 5.30762 23.3189 5.30762Z" stroke="#2193CA" stroke-width="1.7" stroke-linecap="round" stroke-linejoin="round"/>
<path d="M23.3189 18.2307H3.68255C2.47757 18.2307 1.50073 19.195 1.50073 20.3846V24.6923C1.50073 25.8818 2.47757 26.8461 3.68255 26.8461H23.3189C24.5239 26.8461 25.5007 25.8818 25.5007 24.6923V20.3846C25.5007 19.195 24.5239 18.2307 23.3189 18.2307Z" stroke="#2193CA" stroke-width="1.7" stroke-linecap="round" stroke-linejoin="round"/>
<path d="M23.3189 5.30769H3.68255C3.10439 5.30609 2.55038 5.07866 2.14156 4.67508C1.73274 4.2715 1.50235 3.72459 1.50073 3.15385C1.50235 2.5831 1.73274 2.03619 2.14156 1.63261C2.55038 1.22903 3.10439 1.0016 3.68255 1H23.3189C23.8971 1.0016 24.4511 1.22903 24.8599 1.63261C25.2687 2.03619 25.4991 2.5831 25.5007 3.15385C25.4991 3.72459 25.2687 4.2715 24.8599 4.67508C24.4511 5.07866 23.8971 5.30609 23.3189 5.30769ZM5.86437 26.8462V28.3269C5.86437 28.5054 5.79254 28.6766 5.66467 28.8029C5.5368 28.9291 5.36338 29 5.18255 29H3.27346C3.09263 29 2.91921 28.9291 2.79134 28.8029C2.66348 28.6766 2.59164 28.5054 2.59164 28.3269V26.8462H5.86437ZM24.4098 26.8462V28.3269C24.4098 28.5054 24.338 28.6766 24.2101 28.8029C24.0823 28.9291 23.9088 29 23.728 29H21.8189C21.6381 29 21.4647 28.9291 21.3368 28.8029C21.2089 28.6766 21.1371 28.5054 21.1371 28.3269V26.8462H24.4098Z" stroke="#2193CA" stroke-width="1.7" stroke-linecap="round" stroke-linejoin="round"/>
<path d="M21.137 23.6153C21.7395 23.6153 22.2279 23.1331 22.2279 22.5383C22.2279 21.9436 21.7395 21.4614 21.137 21.4614C20.5345 21.4614 20.0461 21.9436 20.0461 22.5383C20.0461 23.1331 20.5345 23.6153 21.137 23.6153Z" stroke="#2193CA" stroke-width="1.7" stroke-linejoin="round"/>
<path d="M5.86432 23.6153C6.46681 23.6153 6.95523 23.1331 6.95523 22.5383C6.95523 21.9436 6.46681 21.4614 5.86432 21.4614C5.26182 21.4614 4.77341 21.9436 4.77341 22.5383C4.77341 23.1331 5.26182 23.6153 5.86432 23.6153Z" stroke="#2193CA" stroke-width="1.7" stroke-linejoin="round"/>
<path d="M13.5007 5.30765V18.2307M1.50073 3.15381V22.5384M25.5007 3.15381V22.5384" stroke="#2193CA" stroke-width="1.7" stroke-linecap="round" stroke-linejoin="round"/>
</svg>
