<svg width="29" height="28" viewBox="0 0 29 28" fill="none" xmlns="http://www.w3.org/2000/svg">
<path d="M13.2707 1.94371e-07C12.9492 0.000265256 12.6363 0.103813 12.3782 0.295379C12.12 0.486944 11.9302 0.756392 11.8367 1.064L4.25873 26H1.50073C1.23552 26 0.981162 26.1054 0.793626 26.2929C0.606089 26.4804 0.500732 26.7348 0.500732 27C0.500732 27.2652 0.606089 27.5196 0.793626 27.7071C0.981162 27.8946 1.23552 28 1.50073 28H27.5007C27.7659 28 28.0203 27.8946 28.2078 27.7071C28.3954 27.5196 28.5007 27.2652 28.5007 27C28.5007 26.7348 28.3954 26.4804 28.2078 26.2929C28.0203 26.1054 27.7659 26 27.5007 26H24.7417L17.1657 1.064C17.0722 0.756064 16.8821 0.48638 16.6235 0.294783C16.3649 0.103186 16.0516 -0.000163591 15.7297 1.94371e-07H13.2707ZM6.35073 26L8.01073 20.538C8.16051 20.6227 8.32967 20.6671 8.50173 20.667H17.0017C17.2669 20.667 17.5213 20.5616 17.7088 20.3741C17.8964 20.1866 18.0017 19.9322 18.0017 19.667C18.0017 19.4018 17.8964 19.1474 17.7088 18.9599C17.5213 18.7724 17.2669 18.667 17.0017 18.667H8.57873L9.38873 16H15.5007C15.7659 16 16.0203 15.8946 16.2078 15.7071C16.3954 15.5196 16.5007 15.2652 16.5007 15C16.5007 14.7348 16.3954 14.4804 16.2078 14.2929C16.0203 14.1054 15.7659 14 15.5007 14H9.99573L13.6417 2H15.3597L22.6517 26H6.35073Z" fill="#2193CA"/>
</svg>
