<svg width="75" height="91" viewBox="0 0 75 91" fill="none" xmlns="http://www.w3.org/2000/svg">
<path fill-rule="evenodd" clip-rule="evenodd" d="M30.3215 1H1.15833V70.1048C1.15833 73.6038 2.263 80.383 9.55379 80.1644L30.1006 80.383V1H30.3215Z" fill="white"/>
<path fill-rule="evenodd" clip-rule="evenodd" d="M44.6784 1H73.8416V70.1048C73.8416 73.6038 72.7369 80.383 65.4461 80.1644L44.4575 80.383V1H44.6784Z" fill="white"/>
<path fill-rule="evenodd" clip-rule="evenodd" d="M28.3306 1H46.4471L46.668 80.3831C41.8075 80.3831 37.8307 85.4128 37.8307 89.3492L37.6098 88.6931C37.6098 84.9755 33.633 80.1644 28.5515 80.3831V1H28.3306Z" fill="#107EC2"/>
<path d="M28.3331 66.1682H1.15833V67.2616H28.3331V66.1682Z" fill="#5A5A5C"/>
<path d="M73.8417 66.1682H46.6669V67.2616H73.8417V66.1682Z" fill="#5A5A5C"/>
<path d="M46.668 65.9495H28.3306V67.4802H46.668V65.9495Z" fill="#F3F4F4"/>
<path fill-rule="evenodd" clip-rule="evenodd" d="M11.762 64.2001L10.8782 63.9814L11.9829 63.1066L12.8666 63.3253L11.762 64.2001Z" fill="#E92429"/>
<path fill-rule="evenodd" clip-rule="evenodd" d="M10.4343 63.7633L9.5506 63.5446L10.6553 62.6699L11.539 62.8886L10.4343 63.7633Z" fill="#E92429"/>
<path fill-rule="evenodd" clip-rule="evenodd" d="M6.01856 24.1807C6.23949 23.5247 7.12323 23.306 7.5651 23.7433C8.2279 24.3994 8.2279 24.6181 8.66977 25.2742C8.8907 25.4929 9.33257 25.9302 9.77443 26.5863C10.8791 27.6797 11.9838 30.0853 12.2047 31.6161C12.8675 34.459 11.7628 36.8646 10.8791 38.8327C10.2163 39.9262 9.33257 41.2382 8.66977 42.3317C8.2279 43.4251 7.78603 44.0812 7.78603 45.3933C7.78603 46.2681 8.00696 46.9241 9.11163 46.7054C9.55349 46.7054 9.77443 46.268 10.2163 45.8306C10.2163 45.612 10.4372 45.612 10.6582 45.3933C10.4372 46.4867 10.6582 47.7989 10.2163 48.6736C9.77443 49.3297 9.11162 49.5483 8.22789 49.5483C7.12322 49.767 6.01856 49.1109 5.5767 47.7988C3.80923 43.2064 6.2395 35.3337 6.2395 32.0535C6.2395 28.1171 4.69296 25.7115 6.01856 24.1807Z" fill="#5A5A5C"/>
<path fill-rule="evenodd" clip-rule="evenodd" d="M10.2149 15.6521C10.2149 16.0895 10.2149 16.5268 10.4358 16.7455C10.4358 15.6521 10.4358 14.7773 11.0986 14.1213C11.7614 13.6839 12.6452 14.34 12.8661 15.2147C12.8661 14.7773 13.087 14.1213 13.5289 14.1213C13.9708 14.1213 13.7498 14.996 13.9708 15.2147C15.2964 15.6521 16.1801 16.3082 17.2848 16.9642C17.7266 17.1829 17.9476 17.4016 18.1685 17.839C18.3894 18.9324 17.2848 19.1511 15.9592 18.7137C15.7382 18.9324 16.401 19.1511 16.622 19.1511C16.622 19.3698 16.622 19.5884 16.401 19.5884C15.5173 19.8071 15.2964 19.5884 14.4126 19.5884C13.9708 19.5884 13.7498 20.4632 14.6336 21.1193C18.1685 22.4314 19.936 24.1808 21.9244 26.149L15.7382 29.8667C14.8545 27.0238 13.087 24.6182 10.4358 22.2127C9.33116 21.1193 8.66837 19.8071 8.66837 18.2763C8.44744 17.6202 9.11023 16.3082 10.2149 15.6521Z" fill="#5A5A5C"/>
<path fill-rule="evenodd" clip-rule="evenodd" d="M14.8568 16.7456C15.2987 16.9642 15.5196 17.1829 15.2987 17.4016C15.0777 17.6203 14.6359 17.6203 14.4149 17.4016C13.9731 17.1829 13.9731 16.9642 13.9731 16.7456C14.194 16.5269 14.4149 16.5269 14.8568 16.7456Z" fill="white"/>
<path fill-rule="evenodd" clip-rule="evenodd" d="M14.8519 16.7452C15.0729 16.7452 15.0729 16.9639 15.0729 16.9639C15.0729 17.1826 14.8519 17.1825 14.8519 17.1825C14.631 17.1825 14.631 16.9639 14.631 16.9639C14.4101 16.9639 14.631 16.7452 14.8519 16.7452Z" fill="#5A5A5C"/>
<path fill-rule="evenodd" clip-rule="evenodd" d="M17.5064 17.4014C17.7273 17.4014 18.1692 17.4015 18.3901 17.8388C18.611 18.4949 18.1692 18.9322 17.9482 18.7136C17.9482 18.4949 17.9482 18.2762 17.9482 18.2762C17.7273 18.2762 17.7273 18.4949 17.7273 18.4949C17.5064 18.0575 17.2854 17.8388 17.5064 17.4014Z" fill="white"/>
<path fill-rule="evenodd" clip-rule="evenodd" d="M16.4037 19.3698C16.8456 19.3698 17.2875 19.5886 17.9503 19.1512C18.3921 18.7138 19.0549 18.7138 19.7177 19.1512C20.1596 19.3699 20.6015 19.1512 21.0433 19.1512C21.0433 19.5886 20.6015 20.2446 19.9387 20.0259C19.4968 20.0259 19.2759 19.5885 18.834 19.5885C18.3921 19.5885 18.3921 20.0259 17.9503 20.0259C17.0665 20.0259 17.0665 19.5885 16.4037 19.3698Z" fill="#E92429"/>
<path fill-rule="evenodd" clip-rule="evenodd" d="M13.7522 20.4628C13.7522 20.0255 14.1941 20.0255 14.6359 20.0255C14.1941 20.0255 14.1941 20.4629 14.415 20.6815C15.0778 21.3376 16.8453 22.4311 18.1709 23.5245C16.8453 22.6498 15.5197 21.9937 13.9731 21.3376C13.7522 21.3376 13.7522 20.9002 13.7522 20.4628Z" fill="white"/>
<path fill-rule="evenodd" clip-rule="evenodd" d="M11.3195 15.2143C11.5404 14.9956 11.9823 15.433 11.9823 15.8704C11.5404 15.8704 11.3195 16.0891 11.3195 16.7451C11.0986 16.3077 11.0986 15.433 11.3195 15.2143Z" fill="white"/>
<path fill-rule="evenodd" clip-rule="evenodd" d="M27.6707 20.9006C27.2289 20.2446 25.2405 21.338 26.1242 23.5249C26.1242 27.6799 23.2521 27.4612 21.2637 26.3678C22.1474 27.8986 23.2521 28.7733 23.9149 30.5228C23.9149 30.5228 26.3451 29.4294 27.2289 27.2425C27.6707 25.493 29.2173 20.9006 27.6707 20.9006Z" fill="#5A5A5C"/>
<path fill-rule="evenodd" clip-rule="evenodd" d="M28.5506 20.9008C28.1087 20.6821 28.1087 20.9008 27.6669 21.1195C27.4459 21.1195 27.225 20.6821 27.6669 20.6821C27.8878 20.4634 28.1087 20.4634 28.5506 20.9008Z" fill="white"/>
<path fill-rule="evenodd" clip-rule="evenodd" d="M28.9938 21.3376C28.552 21.1189 28.552 21.3375 28.1101 21.5562C27.8892 21.5562 27.6682 21.1189 28.1101 21.1189C28.331 20.9002 28.552 20.9002 28.9938 21.3376Z" fill="white"/>
<path fill-rule="evenodd" clip-rule="evenodd" d="M28.7733 21.9942C28.3315 21.7755 28.3315 21.9942 28.1105 21.9942C27.8896 21.9942 27.8896 21.7755 28.1105 21.5568C28.1105 21.5568 28.5524 21.5569 28.7733 21.9942Z" fill="white"/>
<path fill-rule="evenodd" clip-rule="evenodd" d="M17.2865 50.4227C16.8446 46.2677 17.7283 44.7368 19.0539 42.55C18.612 44.0808 18.612 45.1742 20.1586 45.6116C24.1354 47.5798 24.7982 49.7666 23.2516 55.6712C22.8098 56.5459 23.9144 58.2954 25.0191 59.1701C26.3447 59.3888 27.8912 58.7328 28.3331 60.2636C28.3331 61.5757 27.2284 62.4504 25.461 62.2317C22.5888 61.5757 22.5888 58.7328 20.6005 56.9833C20.6005 55.6712 21.2632 55.0151 20.3795 54.1404C19.9376 52.8283 17.7283 52.8282 17.2865 50.4227Z" fill="#5A5A5C"/>
<path fill-rule="evenodd" clip-rule="evenodd" d="M15.5164 30.085L21.7026 26.3673C23.2491 28.3355 23.691 29.8663 24.5747 32.0532C25.0166 33.1466 25.4584 32.9279 26.1212 31.6158C26.784 30.3036 27.005 30.085 27.8887 29.6476H30.5399V30.085C30.5399 30.9597 30.5399 32.2718 28.5515 32.7092C27.8887 32.7092 27.4468 32.4905 27.005 32.9279C26.3422 33.8026 26.5631 35.9895 25.0166 35.9895C23.691 35.7708 22.8072 34.6774 21.4816 32.9279C21.7026 33.584 21.9235 34.24 22.5863 34.8961C21.7026 39.0511 20.377 39.7072 19.0514 41.894C17.9467 43.6435 16.6211 45.1743 16.6211 48.2359C16.4002 49.7667 17.063 50.8602 16.842 52.8283C16.842 53.7031 16.6211 55.6712 15.0746 56.546C13.749 57.6394 11.5396 56.9834 9.99311 57.8581C9.55124 58.2955 9.10937 59.6076 9.3303 61.1384C9.3303 61.5758 9.55124 61.7945 9.99311 61.7945C11.5396 61.5758 12.6443 61.7945 12.8652 62.8879C12.8652 63.7627 10.435 64.8561 9.3303 64.6374C8.22564 64.4187 7.56285 62.8879 7.34192 61.7945C7.34192 60.4824 7.34192 59.3889 7.34192 58.0768C7.56285 55.6712 10.6559 56.9834 9.99311 53.047C9.55124 51.2976 9.77217 50.4228 10.214 48.892C10.214 46.7051 9.99311 44.7369 11.3187 42.7688C13.749 38.8324 16.6211 34.8961 15.5164 30.085Z" fill="#5A5A5C"/>
<path fill-rule="evenodd" clip-rule="evenodd" d="M26.3453 61.7946C26.5662 61.5759 26.5662 61.5759 26.7871 61.7946C27.0081 62.2319 26.7871 62.6693 26.5662 63.1066C26.5662 62.6693 26.3453 62.2319 26.3453 61.7946Z" fill="white"/>
<path fill-rule="evenodd" clip-rule="evenodd" d="M27.004 61.7947C27.004 61.576 27.4459 61.3573 27.6668 61.7947C27.8878 62.2321 27.4459 62.6694 27.4459 62.8881C27.225 62.2321 27.004 62.2321 27.004 61.7947Z" fill="white"/>
<path fill-rule="evenodd" clip-rule="evenodd" d="M27.6693 61.3572C27.6693 61.1385 28.1112 60.9198 28.1112 61.3572C28.3321 61.7946 27.8902 62.0133 27.6693 62.4506C28.1112 61.7946 27.6693 61.7946 27.6693 61.3572Z" fill="white"/>
<path fill-rule="evenodd" clip-rule="evenodd" d="M28.11 60.9198C28.11 60.7011 28.3309 60.4824 28.5519 60.9198C28.7728 61.3571 28.3309 61.5758 28.3309 62.0132C28.5519 61.1384 28.11 61.1384 28.11 60.9198Z" fill="white"/>
<path fill-rule="evenodd" clip-rule="evenodd" d="M10.8782 64.1999C11.0992 63.9812 11.0992 63.9812 11.3201 64.1999C11.541 64.6373 11.3201 64.856 11.0992 65.0747C11.0992 64.6373 10.8782 64.4186 10.8782 64.1999Z" fill="white"/>
<path fill-rule="evenodd" clip-rule="evenodd" d="M11.5431 64.1999C11.5431 63.9812 11.985 63.9812 12.2059 64.1999C12.4268 64.6373 11.985 64.856 11.985 65.0747C11.985 64.4186 11.764 64.6373 11.5431 64.1999Z" fill="white"/>
<path fill-rule="evenodd" clip-rule="evenodd" d="M12.2 63.7624C12.2 63.5437 12.6419 63.5437 12.6419 63.7624C12.8628 64.1998 12.4209 64.4184 12.2 64.6371C12.6419 64.1998 12.2 64.1998 12.2 63.7624Z" fill="white"/>
<path fill-rule="evenodd" clip-rule="evenodd" d="M12.8674 63.3251C12.8674 63.1064 13.0883 62.8877 13.3093 63.3251C13.5302 63.7625 13.0883 63.9811 13.0883 64.1998C13.0883 63.5438 12.6465 63.5438 12.8674 63.3251Z" fill="white"/>
<path fill-rule="evenodd" clip-rule="evenodd" d="M30.5415 29.4291C30.5415 30.0851 30.5415 30.0851 30.0996 30.5225C30.0996 30.9599 30.3206 31.1786 30.5415 30.7412C30.7624 30.5225 30.7624 29.8664 30.5415 29.4291Z" fill="white"/>
<path fill-rule="evenodd" clip-rule="evenodd" d="M30.096 29.6478C30.317 30.3038 30.096 30.3038 29.6542 30.5225C29.6542 30.9599 29.8751 31.1786 30.096 30.7412C30.317 30.5225 30.5379 30.0851 30.096 29.6478Z" fill="white"/>
<path fill-rule="evenodd" clip-rule="evenodd" d="M63.2365 64.1999L63.8993 63.9813L62.7946 62.8879L61.9109 63.1065L63.2365 64.1999Z" fill="#E92429"/>
<path fill-rule="evenodd" clip-rule="evenodd" d="M64.5673 63.7633L65.451 63.5446L64.3464 62.6699L63.4626 62.8886L64.5673 63.7633Z" fill="#E92429"/>
<path fill-rule="evenodd" clip-rule="evenodd" d="M68.9804 24.1807C68.7595 23.5247 67.8757 23.306 67.4339 23.7433C66.7711 24.3994 66.7711 24.6181 66.3292 25.2742C66.1083 25.4929 65.6664 25.9302 65.2245 26.5863C64.1199 27.6797 63.0152 30.0853 62.7943 31.6161C62.1315 34.459 63.2361 36.8646 64.1199 38.8327C64.7827 39.9262 65.6664 41.2382 66.3292 42.3317C66.7711 43.4251 67.2129 44.0812 67.2129 45.3933C67.2129 46.2681 66.992 46.9241 65.8874 46.7054C65.4455 46.7054 65.2246 46.268 64.7827 45.8306C64.7827 45.612 64.5617 45.612 64.3408 45.3933C64.5617 46.4867 64.3408 47.7989 64.7827 48.6736C65.2246 49.3297 65.8873 49.5483 66.7711 49.5483C67.8757 49.767 68.9804 49.1109 69.4223 47.7988C71.1897 43.2064 68.7595 35.3337 68.7595 32.0535C68.7595 28.1171 70.306 25.7115 68.9804 24.1807Z" fill="#5A5A5C"/>
<path fill-rule="evenodd" clip-rule="evenodd" d="M64.5642 15.6521C64.5642 16.0895 64.5643 16.5268 64.3433 16.7455C64.3433 15.6521 64.3433 14.7773 63.6805 14.1213C63.0177 13.6839 62.134 14.34 61.9131 15.2147C61.9131 14.7773 61.6921 14.1213 61.2502 14.1213C60.8084 14.1213 61.0293 14.996 60.8084 15.2147C59.4828 15.6521 58.5991 16.3082 57.4944 16.9642C57.0525 17.1829 56.8316 17.4016 56.6107 17.839C56.6107 18.9324 57.4944 19.1511 58.82 18.7137C59.0409 18.9324 58.3781 19.1511 58.1572 19.1511C58.1572 19.3698 58.1572 19.5884 58.3781 19.5884C59.2619 19.8071 59.4828 19.5884 60.3665 19.5884C60.8084 19.5884 61.0293 20.4632 60.1456 21.1193C56.6107 22.4314 54.8432 24.1808 52.8548 26.149L59.0409 29.8667C59.9247 27.0238 61.6921 24.6182 64.3433 22.2127C65.448 21.1193 66.1108 19.8071 66.1108 18.2763C66.3317 17.6202 65.8898 16.3082 64.5642 15.6521Z" fill="#5A5A5C"/>
<path fill-rule="evenodd" clip-rule="evenodd" d="M60.1431 16.7456C59.7012 16.9642 59.4803 17.1829 59.7012 17.4016C59.7012 17.6203 60.364 17.6203 60.585 17.4016C61.0268 17.1829 61.0268 16.9642 61.0268 16.7456C60.8059 16.5269 60.364 16.5269 60.1431 16.7456Z" fill="white"/>
<path fill-rule="evenodd" clip-rule="evenodd" d="M60.1455 16.7452C59.9246 16.7452 59.9246 16.9639 59.9246 16.9639C59.9246 17.1826 60.1455 17.1825 60.1455 17.1825C60.3664 17.1825 60.3664 16.9639 60.3664 16.9639C60.3664 16.9639 60.3664 16.7452 60.1455 16.7452Z" fill="#5A5A5C"/>
<path fill-rule="evenodd" clip-rule="evenodd" d="M57.4952 17.4014C57.2742 17.4014 56.8324 17.4015 56.6114 17.8388C56.3905 18.4949 56.8324 18.9322 57.0533 18.7136C57.0533 18.4949 57.0533 18.2762 57.0533 18.2762C57.2742 18.2762 57.2742 18.4949 57.2742 18.4949C57.4952 18.0575 57.4952 17.8388 57.4952 17.4014Z" fill="white"/>
<path fill-rule="evenodd" clip-rule="evenodd" d="M58.3809 19.3698C57.9391 19.3698 57.4972 19.5886 56.8344 19.1512C56.3925 18.7138 55.7297 18.7138 55.0669 19.1512C54.6251 19.3699 54.1832 19.1512 53.7413 19.1512C53.7413 19.5886 54.1832 20.2446 54.846 20.0259C55.2879 20.0259 55.5088 19.5885 55.9507 19.5885C56.3925 19.5885 56.3925 20.0259 56.8344 20.0259C57.7181 20.0259 57.7181 19.5885 58.3809 19.3698Z" fill="#E92429"/>
<path fill-rule="evenodd" clip-rule="evenodd" d="M61.2487 20.4628C61.2487 20.0255 60.8068 20.0255 60.365 20.0255C60.8068 20.0255 60.8068 20.4629 60.5859 20.6815C59.9231 21.3376 58.3765 22.4311 56.83 23.5245C58.1556 22.6498 59.2603 21.9937 60.8068 21.3376C61.0278 21.3376 61.2487 20.9002 61.2487 20.4628Z" fill="white"/>
<path fill-rule="evenodd" clip-rule="evenodd" d="M63.4598 15.2143C63.2389 14.9956 62.7971 15.433 62.7971 15.8704C63.2389 15.8704 63.4598 16.0891 63.4598 16.7451C63.9017 16.3077 63.9017 15.433 63.4598 15.2143Z" fill="white"/>
<path fill-rule="evenodd" clip-rule="evenodd" d="M47.1129 20.6819C47.5547 20.0259 49.5431 21.1193 48.6594 23.0875C48.6594 27.2425 51.7525 27.0238 53.7409 25.9304C52.6362 27.2425 51.5315 27.8986 51.0896 29.8668C51.0896 29.8668 48.6594 28.992 47.7756 27.0238C47.3338 25.0557 45.7873 20.6819 47.1129 20.6819Z" fill="#5A5A5C"/>
<path fill-rule="evenodd" clip-rule="evenodd" d="M46.4492 20.6815C46.8911 20.4628 46.8911 20.6815 47.333 20.6815C47.5539 20.6815 47.5539 20.2442 47.333 20.2442C47.112 20.2442 46.6702 20.2442 46.4492 20.6815Z" fill="white"/>
<path fill-rule="evenodd" clip-rule="evenodd" d="M46.0085 21.1191C46.4504 20.9004 46.4504 21.1191 46.8923 21.1191C47.1132 21.1191 47.1132 20.6817 46.8923 20.6817C46.6713 20.6817 46.2295 20.6817 46.0085 21.1191Z" fill="white"/>
<path fill-rule="evenodd" clip-rule="evenodd" d="M46.2291 21.5565C46.6709 21.3378 46.6709 21.5565 46.8919 21.5565C47.1128 21.5565 47.1128 21.3378 46.8919 21.1191C46.6709 21.3378 46.45 21.3378 46.2291 21.5565Z" fill="white"/>
<path fill-rule="evenodd" clip-rule="evenodd" d="M57.7135 50.4227C58.1554 46.2677 57.2717 44.7368 55.9461 42.55C56.3879 44.0808 56.3879 45.1742 54.8414 45.6116C50.8646 47.5798 50.2018 49.7666 51.7483 55.6712C52.1902 56.5459 51.0855 58.2954 49.9809 59.1701C48.6553 59.3888 47.1087 58.7328 46.6669 60.2636C46.6669 61.5757 47.7715 62.4504 49.539 62.2317C52.4111 61.5757 52.4111 58.7328 54.3995 56.9833C54.3995 55.6712 53.7367 55.0151 54.6205 54.1404C55.0623 52.8283 57.0507 52.8282 57.7135 50.4227Z" fill="#5A5A5C"/>
<path fill-rule="evenodd" clip-rule="evenodd" d="M59.4809 30.085L53.2948 26.3673C51.7483 28.3355 51.3064 29.8663 50.4227 32.0532C49.9808 33.1466 49.5389 32.9279 48.8761 31.6158C48.2133 30.3036 47.9924 30.085 47.1087 29.6476H44.4575V30.085C44.4575 30.9597 44.4575 32.2718 46.4459 32.7092C47.1087 32.7092 47.5505 32.4905 47.9924 32.9279C48.6552 33.8026 48.4343 35.9895 49.9808 35.9895C51.3064 35.7708 52.1901 34.6774 53.5157 32.9279C53.2948 33.584 53.0738 34.24 52.411 34.8961C53.2948 39.0511 54.6204 39.7072 55.946 41.894C57.0507 43.6435 58.3763 45.1743 58.3763 48.2359C58.5972 49.7667 57.9344 50.8602 58.1553 52.8283C58.1553 53.7031 58.3762 55.6712 59.9228 56.546C61.2484 57.6394 63.4577 56.9834 65.0042 57.8581C65.4461 58.2955 65.888 59.6076 65.667 61.1384C65.667 61.5758 65.4461 61.7945 65.0042 61.7945C63.4577 61.5758 62.353 61.7945 62.1321 62.8879C62.1321 63.7627 64.5624 64.8561 65.667 64.6374C66.7717 64.4187 67.4345 62.8879 67.6554 61.7945C67.6554 60.4824 67.6554 59.3889 67.6554 58.0768C67.4345 55.6712 64.3414 56.9834 65.0042 53.047C65.4461 51.2976 65.2252 50.4228 64.7833 48.892C64.7833 46.7051 65.0043 44.7369 63.6787 42.7688C61.0275 38.6137 58.3763 34.8961 59.4809 30.085Z" fill="#5A5A5C"/>
<path fill-rule="evenodd" clip-rule="evenodd" d="M48.6561 61.7946C48.4351 61.5759 48.4351 61.5759 48.2142 61.7946C47.9933 62.2319 48.2142 62.6693 48.4351 63.1066C48.4351 62.4506 48.6561 62.0133 48.6561 61.7946Z" fill="white"/>
<path fill-rule="evenodd" clip-rule="evenodd" d="M47.9931 61.7947C47.9931 61.576 47.5512 61.3573 47.3303 61.7947C47.1094 62.2321 47.5512 62.6694 47.5512 62.8881C47.5512 62.2321 47.7722 62.2321 47.9931 61.7947Z" fill="white"/>
<path fill-rule="evenodd" clip-rule="evenodd" d="M47.3323 61.3572C47.3323 61.1385 46.8904 60.9198 46.8904 61.3572C46.6695 61.7946 47.1114 62.0133 47.3323 62.4506C46.8904 61.7946 47.1114 61.7946 47.3323 61.3572Z" fill="white"/>
<path fill-rule="evenodd" clip-rule="evenodd" d="M46.6676 60.9198C46.6676 60.7011 46.4467 60.4824 46.2257 60.9198C46.0048 61.3571 46.4467 61.5758 46.4467 62.0132C46.4467 61.1384 46.8885 61.1384 46.6676 60.9198Z" fill="white"/>
<path fill-rule="evenodd" clip-rule="evenodd" d="M63.9026 64.1999C63.6817 63.9812 63.6817 63.9812 63.4608 64.1999C63.2398 64.6373 63.4608 64.856 63.6817 65.0747C63.6817 64.6373 64.1236 64.4186 63.9026 64.1999Z" fill="white"/>
<path fill-rule="evenodd" clip-rule="evenodd" d="M63.2407 64.1999C63.2407 63.9812 62.7988 63.9812 62.5779 64.1999C62.357 64.6373 62.7988 64.856 62.7988 65.0747C63.0198 64.4186 63.2407 64.4186 63.2407 64.1999Z" fill="white"/>
<path fill-rule="evenodd" clip-rule="evenodd" d="M62.5752 63.7624C62.5752 63.5437 62.1333 63.5437 62.1333 63.7624C61.9124 64.1998 62.3543 64.4184 62.5752 64.6371C62.3543 63.9811 62.5752 64.1998 62.5752 63.7624Z" fill="white"/>
<path fill-rule="evenodd" clip-rule="evenodd" d="M62.1347 63.3251C62.1347 63.1064 61.9138 62.8877 61.6928 63.3251C61.4719 63.7625 61.9138 63.9811 61.9138 64.1998C61.6928 63.5438 62.1347 63.5438 62.1347 63.3251Z" fill="white"/>
<path fill-rule="evenodd" clip-rule="evenodd" d="M44.462 29.4289C44.462 30.085 44.462 30.085 44.9038 30.5223C44.9038 30.9597 44.6829 31.1784 44.462 30.741C44.241 30.5223 44.0201 29.8663 44.462 29.4289Z" fill="white"/>
<path fill-rule="evenodd" clip-rule="evenodd" d="M44.6832 29.6478C44.4623 30.3038 44.6832 30.3038 45.1251 30.5225C45.1251 30.9599 44.9042 31.1786 44.6832 30.7412C44.4623 30.5225 44.4623 30.0851 44.6832 29.6478Z" fill="white"/>
<path fill-rule="evenodd" clip-rule="evenodd" d="M27.004 29.8665C30.539 29.8665 34.0739 29.8665 37.6088 29.8665C41.1438 29.8665 44.6787 29.8665 48.2136 29.8665C48.2136 29.4291 48.2136 28.773 48.2136 28.3357C46.6671 24.618 44.0159 22.4311 41.1438 21.5564C41.1438 21.5564 40.9228 21.5564 40.7019 21.5564V20.463H34.2948V21.5564H34.0739C31.2018 22.4311 28.5506 24.3993 27.004 28.3357C27.004 28.773 27.004 29.4291 27.004 29.8665Z" fill="url(#paint0_linear_177_3605)"/>
<path d="M72.7986 1H2.15833C1.60604 1 1.15833 1.44772 1.15833 2V73.4621C1.15833 77.3281 4.29233 80.4621 8.15832 80.4621H30.2453C32.3129 80.4621 34.2531 81.4611 35.4543 83.144C36.2065 84.198 36.7554 85.3832 37.0725 86.6388L37.8245 89.6161C37.8499 89.7168 37.9929 89.7168 38.0184 89.6161L39.2502 84.7389C40.287 82.1553 42.791 80.4621 45.5749 80.4621H66.7986C70.6646 80.4621 73.7986 77.3281 73.7986 73.4621V2C73.7986 1.44772 73.3509 1 72.7986 1Z" stroke="#107EC2"/>
<defs>
<linearGradient id="paint0_linear_177_3605" x1="28.4845" y1="19.4513" x2="46.3437" y2="37.494" gradientUnits="userSpaceOnUse">
<stop stop-color="#FED09C"/>
<stop offset="0.11" stop-color="#D1AA68"/>
<stop offset="0.22" stop-color="#FDFAD7"/>
<stop offset="0.33" stop-color="#D1AA68"/>
<stop offset="0.43" stop-color="#DBB877"/>
<stop offset="0.5" stop-color="#FDFAD7"/>
<stop offset="0.58" stop-color="#EAD09B"/>
<stop offset="0.7" stop-color="#D1AA68"/>
<stop offset="1" stop-color="#FED09C"/>
</linearGradient>
</defs>
</svg>
