<svg width="37" height="28" viewBox="0 0 37 28" fill="none" xmlns="http://www.w3.org/2000/svg">
<path d="M9.37548 19.2553V6.03069H25.5098L27.2323 4.30762H7.63123V19.2553H9.37548Z" fill="#2193CA"/>
<path d="M5.45077 2.15385H31.6146V19.3846H33.7949V1.61538C33.7949 1.18696 33.6226 0.776078 33.316 0.473135C33.0093 0.170192 32.5934 0 32.1597 0H4.90569C4.47199 0 4.05606 0.170192 3.7494 0.473135C3.44273 0.776078 3.27045 1.18696 3.27045 1.61538V19.3846H5.45077V2.15385Z" fill="#2193CA"/>
<path d="M0 21.5386V25.2001C0 25.9427 0.298625 26.6549 0.830181 27.18C1.36174 27.7051 2.08268 28.0001 2.83441 28.0001H34.1656C34.9173 28.0001 35.6383 27.7051 36.1698 27.18C36.7014 26.6549 37 25.9427 37 25.2001V21.5386H0ZM34.8851 25.2001C34.8851 25.3715 34.8162 25.5358 34.6935 25.657C34.5708 25.7782 34.4045 25.8463 34.231 25.8463H2.79081C2.61733 25.8463 2.45096 25.7782 2.32829 25.657C2.20563 25.5358 2.13671 25.3715 2.13671 25.2001V23.1863H12.9838C13.1201 23.5039 13.3476 23.7752 13.6382 23.9666C13.9288 24.158 14.2698 24.2611 14.619 24.2632H22.3919C22.7411 24.2611 23.0821 24.158 23.3727 23.9666C23.6633 23.7752 23.8908 23.5039 24.0271 23.1863H34.8851V25.2001Z" fill="#2193CA"/>
</svg>
