<svg width="33" height="22" viewBox="0 0 33 22" fill="none" xmlns="http://www.w3.org/2000/svg">
<path d="M29.1981 0.928451L29.1983 0.928427L29.7598 0.844041C30.7747 0.691058 31.7576 1.19343 32.2671 2.11526C32.5984 2.7144 32.686 3.41249 32.5151 4.07994L32.5151 4.08001C32.3436 4.74749 31.9336 5.30769 31.3586 5.6544C31.3586 5.6544 31.3586 5.65441 31.3586 5.65441L22.9807 10.7096L24.5437 18.6898L29.1981 0.928451ZM29.1981 0.928451C28.6423 1.01287 28.0835 0.977869 27.5396 0.825401L27.5396 0.825387C26.1504 0.436762 24.7002 0.636282 23.4557 1.38707L23.5073 1.4727M29.1981 0.928451L23.5073 1.4727M23.5073 1.4727L23.4556 1.38708L7.85529 10.8005M23.5073 1.4727L7.85529 10.8005M7.85529 10.8005L3.10364 8.34498C2.9158 8.24781 2.69492 8.2557 2.5147 8.36453L0.710128 9.45342L7.85529 10.8005ZM31.3148 3.74883L31.3148 3.7487C31.4017 3.41124 31.3571 3.05903 31.1902 2.75639C30.9327 2.29083 30.4403 2.04213 29.9384 2.11928L29.9381 2.11933L29.3765 2.20372L29.3764 2.20373C29.1352 2.23981 28.8954 2.25343 28.6571 2.25455L28.6333 2.26886L26.3775 3.63004L26.2885 3.68372L26.2383 3.59278L25.7173 2.64975L25.6708 2.56548L25.7532 2.51576L26.672 1.96164C25.7777 1.83946 24.8752 2.02222 24.0805 2.50189L24.0289 2.41647L24.0805 2.50189L8.1905 12.0895L4.21236 14.4899L5.24058 16.3515L14.8356 14.1337L16.557 13.0951C16.6526 13.037 16.7608 13.0076 16.8695 13.0076C16.9236 13.0076 16.9781 13.0147 17.0316 13.0299M31.3148 3.74883L21.9714 9.82752C21.7395 9.96725 21.6223 10.2442 21.6754 10.5134L23.2379 18.4941L21.0048 19.8417L17.4082 13.3314L17.408 13.3312C17.3264 13.1842 17.1916 13.075 17.0316 13.0299M31.3148 3.74883C31.2283 4.08639 31.0221 4.36682 30.7344 4.54008L30.7343 4.54013L21.9714 9.82748L31.3148 3.74883ZM17.0316 13.0299L17.0044 13.1261M17.0316 13.0299C17.0316 13.0298 17.0315 13.0298 17.0315 13.0298L17.0044 13.1261M17.0044 13.1261C17.1378 13.1636 17.2513 13.2551 17.3206 13.3798L14.8736 14.2275L16.609 13.1805C16.6887 13.1321 16.7788 13.1076 16.8695 13.1076C16.9148 13.1076 16.9601 13.1136 17.0044 13.1261ZM16.642 14.5345L20.2387 21.0448L20.2387 21.0449C20.3532 21.2514 20.5611 21.3687 20.7779 21.3687C20.8838 21.3687 20.9913 21.3405 21.0894 21.2814L21.0895 21.2814L24.2477 19.3757C24.4796 19.236 24.5968 18.9591 24.5437 18.6899L16.642 14.5345ZM1.86743 10.2458L2.84942 9.65359L6.56961 11.5756L3.59408 13.3712L1.86743 10.2458Z" fill="none" stroke="#2193CA" stroke-width="0.2"/>
<path d="M24.4574 3.41602L23.5492 3.96387L24.0734 4.91305L24.9816 4.36519L24.4574 3.41602Z" fill="#FFFFFF"/>
<path d="M22.6522 4.50488L21.744 5.05273L22.2682 6.00191L23.1765 5.45406L22.6522 4.50488Z" fill="#FFFFFF"/>
<path d="M20.8476 5.59424L19.9393 6.14209L20.4635 7.09127L21.3718 6.54342L20.8476 5.59424Z" fill="#FFFFFF"/>
<path d="M19.0431 6.68262L18.1349 7.23047L18.6591 8.17965L19.5673 7.6318L19.0431 6.68262Z" fill="#FFFFFF"/>
<path d="M17.2382 7.77197L16.33 8.31982L16.8542 9.269L17.7624 8.72115L17.2382 7.77197Z" fill="#FFFFFF"/>
<path d="M15.4333 8.8606L14.525 9.40845L15.0492 10.3576L15.9575 9.80977L15.4333 8.8606Z" fill="#FFFFFF"/>
<path d="M13.6288 9.94946L12.7206 10.4973L13.2448 11.4465L14.153 10.8986L13.6288 9.94946Z" fill="#FFFFFF"/>
<path d="M11.8239 11.0386L10.9156 11.5864L11.4399 12.5356L12.3481 11.9878L11.8239 11.0386Z" fill="#FFFFFF"/>
<path d="M10.0189 12.1272L9.11072 12.675L9.63493 13.6242L10.5432 13.0764L10.0189 12.1272Z" fill="#FFFFFF"/>
</svg>
