<svg width="33" height="22" viewBox="0 0 33 22" fill="none" xmlns="http://www.w3.org/2000/svg">
<path d="M29.7747 0.942924L29.2131 1.02732C28.6432 1.11389 28.0701 1.07795 27.5126 0.921689C26.1503 0.540557 24.7285 0.736023 23.5073 1.4727L7.85907 10.915L3.05769 8.4338C2.90087 8.35267 2.71696 8.35921 2.5664 8.45013L0.761715 9.53908C0.512164 9.68936 0.427244 10.0226 0.571035 10.2828L4.47841 17.3556C4.59198 17.5608 4.82017 17.6654 5.04211 17.6153L15.1778 15.2719C15.2299 15.2599 15.2799 15.2392 15.3258 15.212L16.6793 14.3952L20.3262 20.9965C20.4231 21.1712 20.5976 21.2687 20.7779 21.2687C20.8659 21.2687 20.9555 21.2453 21.0379 21.1957L24.1961 19.2901C24.3904 19.173 24.4909 18.9389 24.4456 18.7091L22.8691 10.6602L31.3069 5.56878C31.8587 5.2361 32.2531 4.69816 32.4182 4.05514C32.5828 3.41211 32.4984 2.74023 32.1796 2.16364C31.6894 1.27669 30.7464 0.79646 29.7747 0.942924ZM2.84565 9.53908L6.77438 11.5689L3.55679 13.5105L1.73335 10.2099L2.84565 9.53908ZM31.4117 3.77364C31.3189 4.13572 31.097 4.43845 30.786 4.62575L22.023 9.91314C21.8287 10.0302 21.7282 10.2643 21.7735 10.4941L23.3495 18.5436L20.9675 19.981L17.3206 13.3798C17.2513 13.2551 17.1378 13.1636 17.0044 13.1261C16.9601 13.1136 16.9148 13.1076 16.8695 13.1076C16.7788 13.1076 16.6887 13.1321 16.609 13.1805L14.8736 14.2275L5.18955 16.4659L4.07829 14.4541L8.13883 12.0039L24.0288 2.41627C24.9228 1.8767 25.9507 1.70355 26.9541 1.90828L25.8048 2.60139L26.3258 3.54442L28.5817 2.18324L28.5655 2.15438C28.8307 2.15656 29.0959 2.14458 29.3616 2.10483L29.9232 2.02044C30.4687 1.93659 31.0011 2.20774 31.2778 2.70811C31.457 3.03316 31.5049 3.41157 31.4117 3.77364Z" fill="#2193CA"/>
<path d="M24.4574 3.41602L23.5492 3.96387L24.0734 4.91305L24.9816 4.36519L24.4574 3.41602Z" fill="#2193CA"/>
<path d="M22.6522 4.50488L21.744 5.05273L22.2682 6.00191L23.1765 5.45406L22.6522 4.50488Z" fill="#2193CA"/>
<path d="M20.8476 5.59424L19.9393 6.14209L20.4635 7.09127L21.3718 6.54342L20.8476 5.59424Z" fill="#2193CA"/>
<path d="M19.0431 6.68262L18.1349 7.23047L18.6591 8.17965L19.5673 7.6318L19.0431 6.68262Z" fill="#2193CA"/>
<path d="M17.2382 7.77197L16.33 8.31982L16.8542 9.269L17.7624 8.72115L17.2382 7.77197Z" fill="#2193CA"/>
<path d="M15.4333 8.8606L14.525 9.40845L15.0492 10.3576L15.9575 9.80977L15.4333 8.8606Z" fill="#2193CA"/>
<path d="M13.6288 9.94946L12.7206 10.4973L13.2448 11.4465L14.153 10.8986L13.6288 9.94946Z" fill="#2193CA"/>
<path d="M11.8239 11.0386L10.9156 11.5864L11.4399 12.5356L12.3481 11.9878L11.8239 11.0386Z" fill="#2193CA"/>
<path d="M10.0189 12.1272L9.11072 12.675L9.63493 13.6242L10.5432 13.0764L10.0189 12.1272Z" fill="#2193CA"/>
</svg>
