<svg width="37" height="27" viewBox="0 0 37 27" fill="none" xmlns="http://www.w3.org/2000/svg">
<path d="M19.2303 15.502C19.1828 16.0405 19.1022 16.4407 18.9914 16.7047C18.8793 16.9679 18.6801 17.0992 18.3926 17.0992C18.3389 17.0992 18.2908 17.09 18.2431 17.0794C18.1943 17.09 18.1464 17.0992 18.0923 17.0992C17.8056 17.0992 17.6058 16.9679 17.4942 16.7047C17.3828 16.4407 17.3037 16.0405 17.2552 15.502L17 11.3442C16.9525 10.5338 16.9283 9.95234 16.9283 9.59937C16.9283 9.11895 17.0434 8.74407 17.2744 8.47493C17.5061 8.20579 17.8106 8.07153 18.1878 8.07153C18.2079 8.07153 18.223 8.07643 18.2427 8.07728C18.2615 8.07643 18.2769 8.07153 18.2965 8.07153C18.6744 8.07153 18.9783 8.20579 19.2097 8.47493C19.4409 8.74449 19.5568 9.11959 19.5568 9.59958C19.5568 9.95255 19.5332 10.534 19.4849 11.3444L19.2303 15.502ZM18.2332 18.6189C18.5994 18.6189 18.9105 18.7447 19.1689 18.9961C19.4271 19.2478 19.5564 19.5534 19.5564 19.9121C19.5564 20.317 19.4255 20.6357 19.1656 20.8672C18.9045 21.0986 18.6 21.2144 18.2519 21.2144C17.8976 21.2144 17.5886 21.1004 17.3244 20.8716C17.0606 20.6436 16.9286 20.3231 16.9286 19.9125C16.9286 19.5538 17.0549 19.2483 17.3074 18.9966C17.5599 18.7447 17.8685 18.6189 18.2337 18.6189" fill="#2193CA"/>
<path d="M16.4808 2.40462L17.1895 2.8385L16.4808 2.40463L4.15671 22.534C3.40199 23.7667 4.28909 25.35 5.73449 25.35H31.2043C32.674 25.35 33.5569 23.7189 32.7533 22.4884L19.6076 2.35905L18.8959 2.82382L19.6076 2.35905C18.8647 1.22159 17.1902 1.246 16.4808 2.40462Z" stroke="#2193CA" stroke-width="1.7"/>
</svg>
