<svg width="37" height="28" viewBox="0 0 37 28" fill="none" xmlns="http://www.w3.org/2000/svg">
<path d="M29.7699 4.23655L29.7249 4.18299H29.655H22.0904H21.9404V4.33299V15.4351L12.1854 1.35894L12.1008 1.23686L12.0974 1.23915C11.463 0.396713 10.4474 -0.15 9.30516 -0.15C7.38897 -0.15 5.827 1.38908 5.827 3.28515V9.4117V9.5617H5.977H6.71169C7.65559 9.5617 8.42046 10.3195 8.42046 11.2465C8.42046 12.1734 7.65559 12.9312 6.71169 12.9312C5.76779 12.9312 5.00291 12.1734 5.00291 11.2465V11.0965H4.85291H3.38353H3.23353V11.2465C3.23353 13.1426 4.7955 14.6816 6.71169 14.6816C8.62788 14.6816 10.1899 13.1426 10.1899 11.2465C10.1899 9.6525 9.08599 8.31107 7.59638 7.92388V6.27642C8.10144 6.55889 8.68473 6.72023 9.30516 6.72023C10.217 6.72023 11.0479 6.37147 11.6687 5.80239L14.6905 16.8854L0.500005 16.885L0.35 16.885V17.035V23.7888V23.9765V24.1265H0.5H2.96173C3.04196 26.3605 4.90694 28.15 7.18491 28.15C9.46284 28.15 11.3286 26.3605 11.4088 24.1265H25.072C25.1522 26.3605 27.0172 28.15 29.2951 28.15C31.5732 28.15 33.4389 26.3605 33.5191 24.1265H36.5H36.65V23.9765V12.4873V12.4327L36.6149 12.3908L29.7699 4.23655ZM9.30516 4.9699C8.36126 4.9699 7.59638 4.21213 7.59638 3.28515C7.59638 2.35811 8.36125 1.6004 9.30516 1.6004C10.2491 1.6004 11.0139 2.35817 11.0139 3.28515C11.014 4.21212 10.2491 4.9699 9.30516 4.9699ZM16.5231 16.8855L13.7489 6.7106L20.8005 16.8857L16.5231 16.8855ZM7.18498 26.338C5.86346 26.338 4.79103 25.2766 4.79103 23.9766C4.79103 22.6765 5.86346 21.6152 7.18498 21.6152C8.50719 21.6152 9.57967 22.6765 9.57967 23.9766C9.5796 25.2766 8.50719 26.338 7.18498 26.338ZM21.9404 22.3143L11.0607 22.3144C10.4088 20.8376 8.9171 19.803 7.18491 19.803C5.4527 19.803 3.96145 20.8376 3.30974 22.3144H2.11939V18.6354L21.9404 18.6361V22.3143ZM29.2952 26.338C27.9737 26.338 26.9013 25.2766 26.9013 23.9766C26.9013 22.6765 27.9737 21.6152 29.2952 21.6152C30.6175 21.6152 31.69 22.6765 31.69 23.9766C31.69 25.2766 30.6175 26.338 29.2952 26.338ZM34.8181 22.3144H33.1711C32.5192 20.8376 31.0274 19.803 29.2953 19.803C27.5632 19.803 26.0718 20.8376 25.4201 22.3144H23.7723V5.9951H28.8655L34.818 13.0868L34.8181 22.3144Z" fill="#2193CA" stroke="#2193CA" stroke-width="0.3"/>
<path d="M25.0091 7.5585H24.8591V7.7085V13.1331V13.2831H25.0091H32.9641H33.2795L33.0805 13.0384L28.6672 7.61383L28.6222 7.5585H28.5509H25.0091ZM26.691 11.4709V9.37061H27.745L29.4533 11.4709H26.691Z" fill="#2193CA" stroke="#2193CA" stroke-width="0.3"/>
</svg>
