<svg width="21" height="21" viewBox="0 0 21 21" fill="none" xmlns="http://www.w3.org/2000/svg">
<g clip-path="url(#clip0_720_7816)">
<path d="M6.97755 19.6574L7.01139 19.6884L7.04518 19.6573C9.37923 17.5115 11.1313 15.5249 12.2999 13.6977C13.4683 11.8708 14.0554 10.2002 14.0545 8.68751C14.0533 6.79895 13.3095 4.98811 11.9866 3.65338C10.6636 2.31863 8.86991 1.56935 6.99997 1.57053C5.13003 1.57171 3.33725 2.32325 2.016 3.65967C0.694769 4.99606 -0.0467333 6.80784 -0.045543 8.6964C-0.0445896 10.2091 0.544592 11.8789 1.71535 13.7044C2.88624 15.5301 4.6408 17.5145 6.97755 19.6574ZM11.0162 4.63348C12.0816 5.70843 12.6808 7.16701 12.6817 8.68838C12.6825 9.86227 12.2182 11.22 11.271 12.7496C10.3296 14.2695 8.91346 15.9556 7.01019 17.7948C5.10461 15.958 3.6863 14.2736 2.74308 12.7549C1.79388 11.2266 1.32792 9.86943 1.32718 8.69553C1.32623 7.17416 1.92357 5.71483 2.98764 4.63854C4.0517 3.56227 5.4953 2.95719 7.00084 2.95624C8.50638 2.95529 9.95074 3.55855 11.0162 4.63348Z" fill="#2193CA" stroke="#2193CA" stroke-width="0.1"/>
<path d="M8.31939 10.0197C7.97093 10.3721 7.49824 10.5702 7.00534 10.5705C6.51244 10.5708 6.03951 10.3733 5.6906 10.0213C5.34167 9.66927 5.14538 9.19152 5.14507 8.69313C5.14475 8.19474 5.34044 7.71673 5.68892 7.36425C6.03739 7.01179 6.51008 6.81369 7.00297 6.81338C7.49587 6.81307 7.96881 7.01057 8.31772 7.3626C8.66664 7.71464 8.86293 8.19239 8.86325 8.69078C8.86356 9.18917 8.66787 9.66718 8.31939 10.0197ZM4.72019 11.0014C5.32662 11.6133 6.14892 11.9568 7.00621 11.9562C7.86351 11.9557 8.68537 11.6111 9.29103 10.9985C9.89667 10.3859 10.2365 9.5555 10.236 8.68992C10.2354 7.82434 9.89453 6.99432 9.28812 6.3825C8.68169 5.77065 7.85939 5.42713 7.0021 5.42767C6.1448 5.42821 5.32294 5.77277 4.71728 6.38538C4.11164 6.99797 3.77179 7.82841 3.77234 8.69399C3.77288 9.55957 4.11378 10.3896 4.72019 11.0014Z" fill="#2193CA" stroke="#2193CA" stroke-width="0.1"/>
</g>
<defs>
<clipPath id="clip0_720_7816">
<rect width="20" height="20" fill="white" transform="translate(0 0.624939) rotate(-0.0361127)"/>
</clipPath>
</defs>
</svg>
