<svg width="21" height="21" viewBox="0 0 21 21" fill="none" xmlns="http://www.w3.org/2000/svg">
<path d="M10.0137 1.30273C7.62672 1.30273 5.33754 2.25095 3.64971 3.93877C1.96188 5.6266 1.01367 7.91579 1.01367 10.3027C1.01367 12.6897 1.96188 14.9789 3.64971 16.6667C5.33754 18.3545 7.62672 19.3027 10.0137 19.3027C12.4006 19.3027 14.6898 18.3545 16.3776 16.6667C18.0655 14.9789 19.0137 12.6897 19.0137 10.3027C19.0137 7.91579 18.0655 5.6266 16.3776 3.93877C14.6898 2.25095 12.4006 1.30273 10.0137 1.30273ZM2.12367 10.9827H4.63367C4.67367 11.8927 4.80067 12.7967 5.01367 13.6827H2.85367C2.45088 12.8336 2.20363 11.9191 2.12367 10.9827ZM10.6937 5.58273V2.49273C11.6574 2.85896 12.4492 3.57236 12.9137 4.49273C13.1187 4.83973 13.2997 5.20073 13.4537 5.57273L10.6937 5.58273ZM13.9137 6.93273C14.1457 7.81573 14.2837 8.72073 14.3237 9.63273H10.6937V6.93273H13.9137ZM9.33367 2.49273V5.58273H6.57367C6.72793 5.21043 6.90839 4.84953 7.11367 4.50273C7.57614 3.57859 8.36826 2.8614 9.33367 2.49273ZM9.33367 6.93273V9.63273H5.71367C5.75367 8.72073 5.89167 7.81573 6.12367 6.93273H9.33367ZM4.63367 9.62273H2.12367C2.20363 8.68633 2.45088 7.77185 2.85367 6.92273H5.01367C4.80026 7.80838 4.673 8.71259 4.63367 9.62273ZM5.71367 10.9827H9.33367V13.6827H6.12367C5.89171 12.7998 5.75427 11.8947 5.71367 10.9827ZM9.34367 14.9827V18.0727C8.37999 17.7065 7.58812 16.9931 7.12367 16.0727C6.91839 15.7259 6.73793 15.365 6.58367 14.9927L9.34367 14.9827ZM10.6937 18.0727V15.0327H13.4537C13.2994 15.405 13.119 15.7659 12.9137 16.1127C12.4492 17.0331 11.6574 17.7465 10.6937 18.1127V18.0727ZM10.6937 13.6327V10.9327H14.3137C14.2731 11.8447 14.1356 12.7498 13.9037 13.6327H10.6937ZM15.4037 10.9327H17.9137C17.8337 11.8691 17.5865 12.7836 17.1837 13.6327H15.0137C15.2237 12.7627 15.3507 11.8757 15.3937 10.9827L15.4037 10.9327ZM15.4037 9.58273C15.3579 8.68904 15.2273 7.80173 15.0137 6.93273H17.1737C17.5767 7.78273 17.8237 8.69673 17.9037 9.63273L15.4037 9.58273ZM16.4037 5.58273H14.6137C14.2898 4.67303 13.8204 3.82196 13.2237 3.06273C14.4681 3.62131 15.549 4.48879 16.3637 5.58273H16.4037ZM6.80367 3.06273C6.20699 3.82196 5.73755 4.67303 5.41367 5.58273H3.66367C4.47839 4.48879 5.55929 3.62131 6.80367 3.06273ZM3.65367 15.0627H5.41367C5.73755 15.9724 6.20699 16.8235 6.80367 17.5827C5.55585 17.0157 4.47462 16.1377 3.66367 15.0327L3.65367 15.0627ZM13.2137 17.5827C13.8104 16.8235 14.2798 15.9724 14.6037 15.0627H16.3637C15.544 16.142 14.4635 16.9954 13.2237 17.5427L13.2137 17.5827Z" fill="#2193CA"/>
</svg>
