<svg width="20" height="21" viewBox="0 0 20 21" fill="none" xmlns="http://www.w3.org/2000/svg">
<path d="M9.17729 12.4226L9.2608 12.3068L9.1773 12.4226C9.67367 12.7804 10.3263 12.7804 10.8227 12.4226L10.7392 12.3068L10.8227 12.4226L17.725 7.44756V16.2249C17.725 16.2412 17.7188 16.255 17.7107 16.2638C17.7028 16.2722 17.6942 16.2749 17.6875 16.2749H2.3125C2.30081 16.2749 2.275 16.2618 2.275 16.2249V7.44756L9.17729 12.4226ZM9.98272 11.1849L9.9827 11.1849L2.275 5.62975V5.02494C2.275 5.00867 2.28115 4.99485 2.28935 4.98611C2.29724 4.97769 2.30579 4.97494 2.3125 4.97494H17.6875C17.6942 4.97494 17.7028 4.97769 17.7107 4.98611C17.7188 4.99485 17.725 5.00867 17.725 5.02494V5.62975L10.0173 11.1849L10.0173 11.1849C10.0112 11.1892 10.0052 11.1908 10 11.1908C9.99478 11.1908 9.98877 11.1892 9.98272 11.1849ZM17.6875 3.47494H2.3125C1.49619 3.47494 0.85 4.17856 0.85 5.02494V16.2249C0.85 16.633 1.00188 17.0262 1.27499 17.3175C1.54841 17.6091 1.92138 17.7749 2.3125 17.7749H17.6875C18.0786 17.7749 18.4516 17.6091 18.725 17.3175C18.9981 17.0262 19.15 16.633 19.15 16.2249V5.02494C19.15 4.17856 18.5038 3.47494 17.6875 3.47494Z" fill="#2193CA" stroke="#2193CA" stroke-width="0.3"/>
</svg>
